<svg id="visual" viewBox="0 0 900 600" width="900" height="600" xmlns="http://www.w3.org/2000/svg" xmlns:xlink="http://www.w3.org/1999/xlink" version="1.1"><path d="M0 237L50 248.2C100 259.3 200 281.7 300 288.7C400 295.7 500 287.3 600 287.3C700 287.3 800 295.7 850 299.8L900 304L900 601L850 601C800 601 700 601 600 601C500 601 400 601 300 601C200 601 100 601 50 601L0 601Z" fill="#98c1ff"></path><path d="M0 429L50 426.8C100 424.7 200 420.3 300 407.5C400 394.7 500 373.3 600 369C700 364.7 800 377.3 850 383.7L900 390L900 601L850 601C800 601 700 601 600 601C500 601 400 601 300 601C200 601 100 601 50 601L0 601Z" fill="#6596e7"></path><path d="M0 478L50 478.7C100 479.3 200 480.7 300 481.3C400 482 500 482 600 483.3C700 484.7 800 487.3 850 488.7L900 490L900 601L850 601C800 601 700 601 600 601C500 601 400 601 300 601C200 601 100 601 50 601L0 601Z" fill="#2c6ccd"></path></svg>