<svg id="visual" viewBox="0 0 900 600" width="900" height="600" xmlns="http://www.w3.org/2000/svg" xmlns:xlink="http://www.w3.org/1999/xlink" version="1.1"><path d="M0 323L50 312.7C100 302.3 200 281.7 300 283.3C400 285 500 309 600 313C700 317 800 301 850 293L900 285L900 601L850 601C800 601 700 601 600 601C500 601 400 601 300 601C200 601 100 601 50 601L0 601Z" fill="#c2c9d3"></path><path d="M0 355L50 359C100 363 200 371 300 383.3C400 395.7 500 412.3 600 415.2C700 418 800 407 850 401.5L900 396L900 601L850 601C800 601 700 601 600 601C500 601 400 601 300 601C200 601 100 601 50 601L0 601Z" fill="#7c8188"></path><path d="M0 522L50 521.8C100 521.7 200 521.3 300 518.2C400 515 500 509 600 499C700 489 800 475 850 468L900 461L900 601L850 601C800 601 700 601 600 601C500 601 400 601 300 601C200 601 100 601 50 601L0 601Z" fill="#3d4044"></path></svg>