<svg id="visual" viewBox="0 0 900 600" width="900" height="600" xmlns="http://www.w3.org/2000/svg" xmlns:xlink="http://www.w3.org/1999/xlink" version="1.1"><path d="M0 372L21.5 371.2C43 370.3 86 368.7 128.8 370C171.7 371.3 214.3 375.7 257.2 375.3C300 375 343 370 385.8 365.8C428.7 361.7 471.3 358.3 514.2 360.3C557 362.3 600 369.7 642.8 379.5C685.7 389.3 728.3 401.7 771.2 401.8C814 402 857 390 878.5 384L900 378L900 601L878.5 601C857 601 814 601 771.2 601C728.3 601 685.7 601 642.8 601C600 601 557 601 514.2 601C471.3 601 428.7 601 385.8 601C343 601 300 601 257.2 601C214.3 601 171.7 601 128.8 601C86 601 43 601 21.5 601L0 601Z" fill="#f9ccb9"></path><path d="M0 479L21.5 467.2C43 455.3 86 431.7 128.8 427.3C171.7 423 214.3 438 257.2 442.5C300 447 343 441 385.8 440C428.7 439 471.3 443 514.2 441.5C557 440 600 433 642.8 429.5C685.7 426 728.3 426 771.2 432.7C814 439.3 857 452.7 878.5 459.3L900 466L900 601L878.5 601C857 601 814 601 771.2 601C728.3 601 685.7 601 642.8 601C600 601 557 601 514.2 601C471.3 601 428.7 601 385.8 601C343 601 300 601 257.2 601C214.3 601 171.7 601 128.8 601C86 601 43 601 21.5 601L0 601Z" fill="#faaa87"></path><path d="M0 529L21.5 524.8C43 520.7 86 512.3 128.8 502.2C171.7 492 214.3 480 257.2 477.7C300 475.3 343 482.7 385.8 493C428.7 503.3 471.3 516.7 514.2 511.7C557 506.7 600 483.3 642.8 477C685.7 470.7 728.3 481.3 771.2 484.2C814 487 857 482 878.5 479.5L900 477L900 601L878.5 601C857 601 814 601 771.2 601C728.3 601 685.7 601 642.8 601C600 601 557 601 514.2 601C471.3 601 428.7 601 385.8 601C343 601 300 601 257.2 601C214.3 601 171.7 601 128.8 601C86 601 43 601 21.5 601L0 601Z" fill="#f68656"></path><path d="M0 514L21.5 517.8C43 521.7 86 529.3 128.8 534.8C171.7 540.3 214.3 543.7 257.2 545.8C300 548 343 549 385.8 545C428.7 541 471.3 532 514.2 529.5C557 527 600 531 642.8 538.5C685.7 546 728.3 557 771.2 557.2C814 557.3 857 546.7 878.5 541.3L900 536L900 601L878.5 601C857 601 814 601 771.2 601C728.3 601 685.7 601 642.8 601C600 601 557 601 514.2 601C471.3 601 428.7 601 385.8 601C343 601 300 601 257.2 601C214.3 601 171.7 601 128.8 601C86 601 43 601 21.5 601L0 601Z" fill="#ee6123"></path></svg>