<svg id="visual" viewBox="0 0 900 600" width="900" height="600" xmlns="http://www.w3.org/2000/svg" xmlns:xlink="http://www.w3.org/1999/xlink" version="1.1"><path d="M0 345L21.5 342.8C43 340.7 86 336.3 128.8 345.3C171.7 354.3 214.3 376.7 257.2 381.8C300 387 343 375 385.8 373.7C428.7 372.3 471.3 381.7 514.2 387.2C557 392.7 600 394.3 642.8 381.7C685.7 369 728.3 342 771.2 334C814 326 857 337 878.5 342.5L900 348L900 601L878.5 601C857 601 814 601 771.2 601C728.3 601 685.7 601 642.8 601C600 601 557 601 514.2 601C471.3 601 428.7 601 385.8 601C343 601 300 601 257.2 601C214.3 601 171.7 601 128.8 601C86 601 43 601 21.5 601L0 601Z" fill="#abede2"></path><path d="M0 414L21.5 407C43 400 86 386 128.8 383.5C171.7 381 214.3 390 257.2 399.7C300 409.3 343 419.7 385.8 418C428.7 416.3 471.3 402.7 514.2 406.8C557 411 600 433 642.8 432.7C685.7 432.3 728.3 409.7 771.2 403.3C814 397 857 407 878.5 412L900 417L900 601L878.5 601C857 601 814 601 771.2 601C728.3 601 685.7 601 642.8 601C600 601 557 601 514.2 601C471.3 601 428.7 601 385.8 601C343 601 300 601 257.2 601C214.3 601 171.7 601 128.8 601C86 601 43 601 21.5 601L0 601Z" fill="#8de6d6"></path><path d="M0 464L21.5 471.3C43 478.7 86 493.3 128.8 490.7C171.7 488 214.3 468 257.2 456.8C300 445.7 343 443.3 385.8 446C428.7 448.7 471.3 456.3 514.2 455C557 453.7 600 443.3 642.8 449C685.7 454.7 728.3 476.3 771.2 476.3C814 476.3 857 454.7 878.5 443.8L900 433L900 601L878.5 601C857 601 814 601 771.2 601C728.3 601 685.7 601 642.8 601C600 601 557 601 514.2 601C471.3 601 428.7 601 385.8 601C343 601 300 601 257.2 601C214.3 601 171.7 601 128.8 601C86 601 43 601 21.5 601L0 601Z" fill="#6cdeca"></path><path d="M0 498L21.5 500C43 502 86 506 128.8 510.5C171.7 515 214.3 520 257.2 528.3C300 536.7 343 548.3 385.8 549.2C428.7 550 471.3 540 514.2 538C557 536 600 542 642.8 543C685.7 544 728.3 540 771.2 537.2C814 534.3 857 532.7 878.5 531.8L900 531L900 601L878.5 601C857 601 814 601 771.2 601C728.3 601 685.7 601 642.8 601C600 601 557 601 514.2 601C471.3 601 428.7 601 385.8 601C343 601 300 601 257.2 601C214.3 601 171.7 601 128.8 601C86 601 43 601 21.5 601L0 601Z" fill="#43d6bd"></path></svg>