<svg xmlns="http://www.w3.org/2000/svg" xmlns:xlink="http://www.w3.org/1999/xlink" width="1000" zoomAndPan="magnify" viewBox="0 0 750 749.999995" height="1000" preserveAspectRatio="xMidYMid meet" version="1.0"><defs><g/><clipPath id="7d1747b5e4"><path d="M 94 128.363281 L 652 128.363281 L 652 675 L 94 675 Z M 94 128.363281 " clip-rule="nonzero"/></clipPath><clipPath id="1d8f8562d3"><path d="M 263.332031 186.824219 L 486.832031 186.824219 L 486.832031 414.824219 L 263.332031 414.824219 Z M 263.332031 186.824219 " clip-rule="nonzero"/></clipPath><clipPath id="5c80325e80"><path d="M 259.585938 419 L 482 419 L 482 436 L 259.585938 436 Z M 259.585938 419 " clip-rule="nonzero"/></clipPath><clipPath id="c5c07f5f1a"><path d="M 259.585938 420 L 482 420 L 482 440 L 259.585938 440 Z M 259.585938 420 " clip-rule="nonzero"/></clipPath><clipPath id="1db2ea205c"><path d="M 271 430 L 486.835938 430 L 486.835938 462 L 271 462 Z M 271 430 " clip-rule="nonzero"/></clipPath><clipPath id="9ffcbfcc70"><path d="M 270 430 L 486.835938 430 L 486.835938 471 L 270 471 Z M 270 430 " clip-rule="nonzero"/></clipPath></defs><g clip-path="url(#7d1747b5e4)"><path fill="#e8cfff" d="M 567.9375 373.867188 C 568.078125 371.703125 568.003906 369.5625 567.707031 367.4375 C 569.246094 366.613281 570.785156 365.789062 572.328125 364.972656 L 574.929688 369.472656 C 572.605469 370.9375 570.269531 372.398438 567.9375 373.867188 Z M 562.074219 539.410156 L 559.519531 534.878906 L 565.441406 529.132812 L 568.019531 533.65625 C 567.6875 533.839844 562.402344 539.230469 562.074219 539.410156 Z M 308.019531 559 C 305.046875 560.386719 302.078125 561.777344 299.109375 563.175781 L 296.644531 558.601562 C 298.289062 557.589844 299.914062 556.613281 301.511719 555.679688 C 307.246094 552.335938 312.996094 548.976562 318.746094 545.601562 C 319.339844 545.789062 319.933594 545.960938 320.546875 546.101562 C 325.253906 547.171875 329.734375 547.28125 334.125 546.484375 C 325.441406 550.855469 316.652344 554.96875 308.019531 559 Z M 297.28125 589.996094 L 294.386719 585.667969 C 294.824219 585.371094 298.820312 582.453125 299.175781 582.21875 L 302.164062 586.476562 C 301.847656 586.707031 297.816406 589.652344 297.28125 589.996094 Z M 210.515625 488.371094 C 212.878906 486.851562 215.234375 485.285156 217.585938 483.703125 C 217.570312 484.273438 217.566406 484.84375 217.589844 485.417969 C 217.65625 486.945312 217.8125 488.425781 218.050781 489.875 C 216.457031 490.847656 214.863281 491.820312 213.273438 492.785156 Z M 155.289062 304.402344 L 152.402344 300.070312 L 153.585938 299.265625 C 155.359375 298.058594 156.761719 297.101562 157.789062 296.472656 L 160.628906 300.832031 C 158.820312 302.085938 156.910156 303.339844 155.289062 304.402344 Z M 148.261719 428.589844 L 145.480469 424.191406 C 146.203125 423.726562 150.433594 420.117188 150.867188 419.882812 L 153.476562 424.378906 C 152.949219 424.703125 148.78125 428.269531 148.261719 428.589844 Z M 183.714844 232.867188 L 186.75 237.09375 L 183.714844 232.871094 Z M 222.921875 176.027344 C 223.222656 176.367188 223.511719 176.734375 223.765625 177.121094 L 219.445312 180.019531 C 219.320312 179.828125 219.183594 179.652344 219.035156 179.484375 Z M 432.582031 200.464844 C 428.757812 203.234375 424.878906 205.960938 420.96875 208.65625 C 419.457031 206.539062 417.722656 204.535156 415.785156 202.761719 C 420.4375 200.601562 425.179688 198.375 429.902344 196.027344 Z M 458.238281 252.980469 C 459.253906 252.511719 460.285156 252.046875 461.351562 251.578125 L 463.9375 256.058594 C 458.765625 259.847656 453.382812 263.742188 447.886719 267.574219 C 447.894531 264.515625 447.496094 261.390625 446.667969 258.464844 C 450.519531 256.609375 454.375 254.773438 458.238281 252.980469 Z M 533.898438 301.046875 L 536.609375 305.488281 C 535.882812 305.941406 532.695312 308.644531 532.027344 309.035156 L 529.328125 304.589844 C 530.003906 304.164062 533.1875 301.46875 533.898438 301.046875 Z M 651.304688 466.4375 C 650.867188 465.675781 649.398438 465.5625 648.5625 465.5625 C 643.964844 465.5625 635.820312 468.738281 628.296875 473.460938 L 624.976562 469.519531 C 627.714844 466.464844 628.765625 463.027344 627.773438 460.324219 C 626.734375 457.480469 623.558594 455.554688 618.828125 454.898438 L 612.140625 453.964844 L 617.722656 450.167969 C 635.78125 437.875 646.585938 427.253906 647.359375 421.019531 C 647.511719 419.761719 647.230469 418.765625 646.453125 417.898438 C 645.675781 417.015625 644.28125 416.5625 642.320312 416.5625 C 641.054688 416.5625 639.554688 416.757812 637.875 417.128906 L 629.683594 418.957031 L 635.410156 412.816406 C 640.015625 407.875 643.507812 402.796875 646.039062 397.351562 C 643.808594 396.585938 641.398438 396.199219 638.839844 396.199219 C 637.800781 396.199219 636.71875 396.261719 635.621094 396.386719 L 629.40625 397.097656 L 633.28125 392.191406 C 633.539062 391.863281 633.792969 391.535156 634.042969 391.203125 C 641.585938 381.058594 642.15625 375.546875 641.398438 374.046875 C 641.304688 373.859375 641.058594 373.359375 639.683594 373.359375 C 638.113281 373.359375 633.457031 374.109375 624.179688 381.070312 L 621.054688 376.90625 C 640.308594 362.46875 639.5 358.023438 639.484375 357.988281 C 639.390625 357.835938 638.539062 357.285156 636.035156 357.285156 C 629.433594 357.285156 616.078125 361.269531 603.316406 368.882812 L 600.515625 364.5 C 602.816406 362.933594 606.527344 360.820312 610.832031 358.367188 C 623.277344 351.277344 644.109375 339.414062 645.5625 331.386719 C 646.230469 327.691406 645.945312 324.972656 644.734375 323.53125 C 643.839844 322.457031 642.253906 321.910156 640.023438 321.910156 C 634.257812 321.910156 626.328125 325.441406 621.289062 328.46875 L 618.320312 324.210938 C 630.773438 314.214844 630.265625 310.808594 630.28125 310.808594 C 630.167969 310.683594 629.453125 310.320312 627.742188 310.320312 C 623.175781 310.320312 615.96875 312.683594 608.925781 316.492188 C 591.46875 325.929688 574.023438 336.695312 556.910156 347.574219 C 555.679688 346.546875 554.355469 345.632812 552.929688 344.882812 C 551.695312 344.230469 550.367188 343.609375 548.980469 343.050781 C 549.261719 342.859375 549.546875 342.671875 549.832031 342.480469 C 550.355469 342.128906 551.316406 341.496094 552.636719 340.632812 C 559.472656 336.15625 577.625 324.273438 592.898438 312.621094 C 616.101562 294.902344 617.472656 289.296875 617.453125 288.191406 C 617.351562 288.179688 617.207031 288.171875 617.019531 288.171875 C 615.804688 288.171875 613.292969 288.597656 608.226562 290.625 L 605.710938 286.121094 C 614.953125 279.277344 621.488281 272.691406 625.699219 265.980469 C 627.484375 263.144531 629.152344 260.894531 630.496094 259.085938 C 631.238281 258.085938 632.054688 256.996094 632.546875 256.210938 C 631.664062 256.015625 630.035156 255.785156 627.023438 255.574219 C 626.621094 255.550781 626.21875 255.539062 625.800781 255.539062 C 617.660156 255.539062 605.574219 260.425781 588.851562 270.480469 L 585.363281 266.78125 C 587.910156 263.066406 588.882812 260.007812 588.027344 258.386719 C 587.390625 257.171875 585.46875 256.476562 582.753906 256.476562 C 579.878906 256.476562 576.417969 257.277344 572.996094 258.722656 L 570.507812 254.183594 C 574.460938 251.464844 576.699219 247.785156 576.222656 244.808594 C 575.796875 242.214844 573.203125 240.089844 568.886719 238.835938 C 568.519531 238.730469 568.085938 238.675781 567.601562 238.671875 L 558.101562 238.625 L 566.308594 233.824219 C 577.496094 227.289062 579.601562 222.753906 579.394531 220.101562 C 579.117188 216.5 577.605469 215.757812 575.414062 215.757812 C 568.246094 215.757812 554.265625 224.972656 547.136719 230.773438 L 543.535156 227.042969 C 559.488281 208.816406 557.679688 204.207031 557.59375 204.019531 C 557.367188 203.523438 556.210938 203.347656 555.195312 203.347656 C 553.394531 203.347656 549.933594 203.84375 543.6875 206.214844 L 537.503906 208.5625 L 540.429688 202.632812 C 540.941406 201.597656 541.410156 200.535156 541.824219 199.472656 C 546.285156 188.03125 545.050781 184.277344 544.308594 183.195312 C 544.097656 182.886719 543.460938 181.953125 541.027344 181.953125 C 536.441406 181.953125 528.46875 185.257812 518.570312 191.265625 L 515.515625 187.074219 C 517.09375 185.71875 517.859375 184.433594 517.5625 183.644531 C 516.972656 182.058594 513.109375 180.34375 507.898438 180.34375 C 503.8125 180.34375 499.921875 181.367188 496.949219 183.230469 L 494.011719 178.941406 C 507.511719 168.839844 512.589844 161.023438 511.597656 158.042969 C 510.964844 156.140625 506.914062 155.003906 500.761719 155.003906 C 499.613281 155.003906 498.378906 155.039062 497.078125 155.117188 C 492.464844 155.378906 487.703125 156.816406 482.53125 159.507812 L 475.324219 163.265625 L 479.015625 156.019531 C 479.621094 154.828125 480.183594 153.609375 480.683594 152.378906 C 480.296875 152.363281 479.90625 152.359375 479.519531 152.359375 C 470.449219 152.359375 460.945312 155.917969 449.625 163.554688 L 446.679688 159.265625 C 459.265625 150.492188 470.980469 141.59375 476.179688 129.539062 C 473.445312 128.753906 470.433594 128.359375 467.191406 128.359375 C 454.03125 128.359375 436.984375 134.605469 415.066406 147.449219 L 411.902344 149.300781 L 411.199219 145.707031 C 410.828125 143.832031 409.972656 142.09375 406.265625 142.09375 C 400 142.09375 388.820312 147.121094 374.804688 156.25 L 371.625 152.160156 C 377.792969 146.457031 382.261719 140.367188 384.441406 134.757812 C 383.039062 134.371094 381.6875 134.179688 380.335938 134.179688 C 375.574219 134.179688 370.925781 136.59375 365.042969 139.648438 L 364.898438 139.722656 C 349.960938 147.492188 335.148438 156.34375 320.828125 164.902344 C 314.117188 168.90625 307.183594 173.050781 300.332031 177.027344 L 297.671875 172.558594 L 299.019531 171.734375 C 348.625 141.523438 350.976562 132.621094 350.519531 130.609375 C 350.34375 129.882812 348.761719 128.898438 344.835938 128.515625 C 344.210938 128.453125 343.558594 128.421875 342.886719 128.421875 C 325.074219 128.421875 296.308594 149.675781 273.195312 166.753906 C 260.769531 175.933594 250.046875 183.851562 241.863281 188.125 L 239.136719 183.707031 C 239.949219 183.128906 241.332031 182.1875 243.132812 180.964844 C 273.539062 160.367188 288.589844 146.402344 287.890625 139.464844 C 287.835938 138.917969 287.6875 137.457031 284.664062 136.207031 C 283.613281 135.773438 282.488281 135.5625 281.210938 135.5625 C 271.699219 135.5625 257.421875 147.453125 244.820312 157.949219 C 233.457031 167.417969 222.71875 176.363281 214.492188 177.949219 C 213.953125 178.050781 213.445312 178.246094 212.96875 178.519531 C 211.84375 179.171875 211.035156 180.222656 210.695312 181.476562 C 210.359375 182.734375 210.535156 184.046875 211.191406 185.175781 C 211.597656 185.894531 212.210938 186.507812 212.945312 186.949219 L 216.222656 188.90625 L 213.207031 191.242188 C 210.460938 193.363281 206.878906 195.738281 202.726562 198.488281 C 191.492188 205.933594 176.109375 216.132812 172.695312 225.527344 C 169.320312 234.820312 170.667969 237.460938 170.972656 237.894531 C 171.085938 238.058594 171.320312 238.394531 172.296875 238.394531 C 173.242188 238.394531 175.417969 238.042969 179.402344 235.703125 L 182.121094 240.140625 L 180.421875 241.230469 C 173.128906 245.878906 162.109375 252.914062 152.941406 260.066406 C 138.554688 271.300781 138.179688 275.542969 138.402344 276.574219 C 138.652344 277.710938 140.859375 278.671875 144.375 279.152344 L 151.859375 279.753906 L 145.609375 283.910156 C 119.675781 301.160156 119.574219 308.601562 120.726562 311.003906 C 121.261719 312.101562 122.230469 313.367188 125.039062 313.367188 C 129.304688 313.367188 135.96875 310.5625 144.847656 305.03125 L 147.679688 309.394531 C 139.613281 314.8125 131.710938 320.835938 127.75 328.308594 C 129.542969 328.773438 131.425781 329.085938 133.378906 329.238281 L 140.121094 329.777344 L 134.757812 333.894531 C 120.761719 344.648438 111.226562 355.542969 105.6875 367.132812 C 107.285156 367.65625 108.890625 367.90625 110.578125 367.90625 C 117.527344 367.90625 124.675781 363.453125 131.59375 359.144531 C 133.308594 358.074219 135.007812 357.019531 136.703125 356.027344 L 139.335938 360.511719 C 127.636719 367.375 110.6875 380.816406 111.460938 387.871094 C 111.675781 389.792969 113.585938 391.347656 117.148438 392.5 C 117.476562 392.601562 117.890625 392.65625 118.371094 392.65625 C 120.0625 392.65625 123.382812 392 129.605469 388.855469 L 132.214844 393.347656 C 100.59375 414.339844 100.113281 421.734375 100.339844 423.003906 C 100.59375 424.410156 103 425.191406 104.417969 425.527344 C 104.492188 425.550781 104.578125 425.5625 104.65625 425.578125 L 109.71875 426.511719 L 105.972656 430.035156 C 100.382812 435.292969 96.796875 440.1875 95.328125 444.578125 C 93.714844 449.429688 94.457031 450.820312 94.625 451.054688 C 94.917969 451.464844 95.800781 451.523438 96.296875 451.523438 C 104.949219 451.519531 127.566406 436.269531 135 431.261719 L 138 435.511719 C 120.714844 448.261719 117.808594 456.671875 118.683594 459.335938 C 119.289062 461.179688 122.277344 461.453125 124.003906 461.453125 C 127.867188 461.453125 136.777344 460.101562 153.074219 451.058594 L 155.648438 455.582031 C 109.335938 482.578125 110.855469 489.203125 110.875 489.269531 C 110.882812 489.277344 111.792969 490.539062 117.785156 490.539062 C 118.222656 490.539062 118.683594 490.535156 119.15625 490.523438 L 123.121094 490.410156 L 121.636719 494.09375 C 115.1875 510.101562 116.164062 513.535156 116.613281 514.203125 C 116.71875 514.363281 117.132812 514.382812 117.375 514.382812 C 120.851562 514.382812 128.605469 510.042969 136.816406 505.449219 C 138.050781 504.757812 139.3125 504.042969 140.617188 503.324219 C 159.972656 492.574219 180.667969 480.445312 205.195312 465.480469 C 205.328125 465.652344 205.449219 465.828125 205.582031 465.996094 C 206.59375 467.304688 207.714844 468.570312 208.9375 469.761719 C 197.355469 477.714844 186.730469 485.402344 176.652344 493.125 C 174.621094 494.675781 172.078125 496.519531 169.382812 498.472656 C 163.445312 502.777344 152.953125 510.378906 150.152344 514.003906 C 150.171875 514.003906 150.195312 514.007812 150.21875 514.007812 C 152.257812 514.003906 155.503906 513.476562 159.867188 512.417969 C 169.972656 509.980469 180.925781 505.480469 193.34375 498.65625 L 195.921875 503.183594 C 188.453125 507.609375 181.046875 511.925781 173.914062 516.015625 C 170.519531 517.960938 166.890625 519.828125 163.375 521.628906 C 153.894531 526.5 144.128906 531.515625 137.351562 538.863281 C 137.785156 538.882812 138.230469 538.898438 138.679688 538.898438 C 148.847656 538.898438 164 533.019531 184.992188 520.929688 L 187.847656 525.273438 C 168.292969 539.851562 165.960938 547.03125 166.324219 550.019531 C 166.582031 552.148438 167.386719 554.125 171.527344 554.121094 C 176.527344 554.121094 184.476562 551.234375 194.515625 545.777344 L 197.363281 550.109375 C 177.128906 565.941406 176.011719 572.25 176.472656 574.226562 C 176.898438 576.082031 179.730469 577.058594 182.03125 577.546875 L 186.996094 578.609375 L 183.230469 582.019531 C 178.828125 586.015625 173.261719 592.183594 170.292969 599.855469 C 186.527344 599.332031 205.820312 585.441406 221.382812 574.238281 C 227.246094 570.023438 232.777344 566.035156 237.714844 563.039062 C 245.867188 558.078125 254.109375 553.117188 262.335938 548.1875 C 266.421875 548.664062 270.554688 548.421875 273.878906 547.285156 C 284.285156 543.726562 294.414062 539.589844 304.300781 534.980469 C 305.25 536.191406 306.273438 537.355469 307.367188 538.449219 C 294.582031 546.960938 281.453125 555.671875 268.382812 564.058594 C 264.921875 566.28125 261.25 568.355469 257.367188 570.550781 C 246.316406 576.800781 234.9375 583.230469 228.769531 593 C 232.671875 592.394531 236.746094 591.335938 241.117188 589.808594 L 243.511719 594.363281 C 227.402344 606.167969 225.257812 612.542969 225.40625 615.285156 C 225.441406 615.929688 225.546875 617.882812 228.902344 619.816406 C 229.871094 620.371094 231.144531 620.652344 232.699219 620.652344 C 237.324219 620.652344 244.113281 618.246094 252.886719 613.507812 L 255.867188 617.722656 C 248.628906 624.296875 248.308594 627.496094 248.507812 628.566406 C 248.726562 629.742188 249.96875 630.773438 252.199219 631.640625 C 252.242188 631.65625 252.417969 631.714844 252.78125 631.714844 C 259.121094 631.714844 277.261719 618.996094 285.976562 612.882812 C 288.792969 610.90625 291.011719 609.347656 292.390625 608.488281 L 295.277344 612.816406 C 277.285156 625.5625 269.609375 637.675781 270.539062 640.59375 C 270.601562 640.792969 271.25 640.945312 272.042969 640.945312 C 274.628906 640.945312 281.269531 639.554688 296.660156 630.253906 L 299.664062 634.484375 C 299.140625 634.917969 298.367188 635.53125 297.40625 636.289062 C 290.855469 641.472656 270.898438 657.25 270.683594 665.863281 C 270.65625 667.011719 271.03125 667.859375 271.898438 668.625 C 272.285156 668.960938 272.914062 669.132812 273.757812 669.132812 C 281.296875 669.132812 297.746094 656.863281 305.644531 650.964844 C 308.234375 649.03125 310.105469 647.636719 311.25 646.929688 C 340.503906 628.769531 370.308594 610.964844 399.578125 593.824219 C 400.578125 597.21875 402.378906 600.347656 404.8125 602.898438 C 399.261719 605.988281 393.332031 608.996094 387.132812 612.109375 C 371.332031 620.050781 355 628.257812 344.277344 638.90625 C 340.699219 642.457031 337.265625 645.863281 335.492188 647.964844 C 338.167969 647.804688 342.570312 647.109375 348.390625 646.183594 L 348.71875 646.132812 C 352.328125 645.5625 356.167969 644.628906 360.105469 643.359375 L 362.625 647.78125 C 355.59375 653.996094 350.574219 660.105469 347.714844 665.945312 C 345.117188 671.246094 344.277344 673.789062 344.027344 674.988281 C 345.753906 674.605469 348.796875 673.324219 351.992188 671.976562 C 354.164062 671.058594 356.628906 670.015625 359.320312 668.972656 C 373.457031 663.488281 389.941406 654.875 409.714844 642.625 L 412.707031 646.875 C 397.996094 658.542969 395.609375 664.335938 395.492188 666.753906 C 395.445312 667.726562 395.753906 668.472656 396.480469 669.167969 C 396.546875 669.230469 396.917969 669.40625 397.789062 669.40625 L 397.796875 669.40625 C 408.699219 669.402344 444.957031 646.113281 461.496094 635.269531 C 463.609375 635.621094 465.734375 635.914062 467.863281 636.121094 L 468.433594 636.941406 C 461.566406 641.964844 457.425781 646.253906 456.066406 649.738281 C 471.054688 647.828125 533.566406 622.367188 554.742188 602.980469 C 553.589844 602.160156 552.617188 601.09375 551.878906 599.828125 L 556.386719 597.214844 C 556.871094 598.054688 557.582031 598.714844 558.445312 599.140625 C 559.667969 597.652344 560.582031 596.21875 561.144531 594.855469 C 562.199219 592.300781 561.855469 590.355469 560.03125 588.550781 L 558.0625 586.597656 L 560.136719 584.757812 C 562.144531 582.976562 566.097656 580.476562 571.109375 577.3125 C 582.773438 569.945312 602.296875 557.621094 604.265625 548.285156 C 604.621094 546.585938 604.359375 545.15625 603.429688 543.773438 C 602.957031 543.066406 602.164062 542.261719 600.230469 542.261719 C 594.871094 542.261719 586.261719 548.023438 580.566406 551.835938 C 578.378906 553.300781 576.484375 554.570312 575.101562 555.296875 L 572.292969 550.941406 C 574.503906 549.230469 578.617188 546.4375 583.820312 542.894531 C 592.128906 537.25 603.507812 529.515625 612.429688 522.511719 C 625.734375 512.058594 626.808594 508.519531 626.867188 507.800781 C 626.597656 507.636719 625.632812 507.195312 622.914062 507.195312 C 622.046875 507.195312 621.058594 507.238281 619.984375 507.332031 L 618.394531 502.53125 C 633.851562 492.910156 643.625 484.738281 647.4375 478.242188 C 652.558594 469.523438 651.554688 466.878906 651.304688 466.4375 " fill-opacity="1" fill-rule="nonzero"/></g><g clip-path="url(#1d8f8562d3)"><path fill="#ffffff" d="M 435.105469 284.136719 C 435.105469 281.300781 436.25 278.703125 438.183594 276.832031 C 440.054688 274.960938 442.652344 273.8125 445.550781 273.8125 L 445.550781 272.0625 C 442.652344 272.0625 440.054688 270.914062 438.183594 269.042969 C 436.3125 267.171875 435.164062 264.574219 435.164062 261.679688 L 433.414062 261.679688 C 433.414062 264.574219 432.265625 267.171875 430.394531 269.042969 C 428.582031 270.855469 426.046875 272.0625 423.210938 272.0625 L 423.027344 272.0625 L 423.027344 273.8125 C 425.925781 273.8125 428.523438 274.960938 430.394531 276.832031 C 432.265625 278.703125 433.414062 281.300781 433.414062 284.136719 Z M 427.496094 272.90625 C 429.003906 272.304688 430.394531 271.398438 431.542969 270.25 C 432.6875 269.105469 433.59375 267.714844 434.199219 266.207031 C 434.800781 267.714844 435.707031 269.105469 436.855469 270.25 C 438 271.398438 439.390625 272.304688 440.898438 272.90625 C 439.390625 273.511719 438.003906 274.417969 436.855469 275.566406 C 435.707031 276.710938 434.800781 278.101562 434.136719 279.609375 C 433.535156 278.101562 432.628906 276.710938 431.421875 275.566406 C 430.453125 274.417969 429.066406 273.511719 427.496094 272.90625 Z M 486.242188 274.839844 C 486.242188 274.71875 486.183594 274.597656 486.121094 274.476562 C 485.882812 274.054688 485.335938 273.933594 484.914062 274.175781 C 484.070312 274.71875 483.222656 275.203125 482.441406 275.746094 C 482.921875 274.417969 483.285156 273.027344 483.527344 271.578125 C 483.890625 268.863281 483.769531 265.84375 483.164062 262.582031 C 483.164062 262.523438 483.105469 262.402344 483.105469 262.34375 C 482.863281 261.917969 482.378906 261.738281 481.957031 261.980469 C 480.929688 262.523438 479.902344 263.125 479 263.789062 C 478.816406 262.644531 478.574219 261.4375 478.273438 260.289062 C 477.851562 258.597656 477.246094 256.90625 476.523438 255.21875 C 476.339844 254.792969 475.796875 254.554688 475.375 254.734375 C 475.253906 254.792969 475.195312 254.855469 475.074219 254.914062 C 472.355469 257.511719 470.546875 260.167969 469.578125 262.824219 C 469.15625 262.160156 468.671875 261.496094 468.191406 260.832031 C 467.890625 260.46875 467.34375 260.347656 466.984375 260.652344 C 466.800781 260.773438 466.742188 260.894531 466.679688 261.074219 C 465.171875 264.695312 464.144531 267.898438 463.601562 270.613281 C 463.238281 272.425781 463.117188 273.996094 463.179688 275.382812 C 461.910156 274.476562 460.582031 273.570312 459.195312 272.789062 C 458.773438 272.546875 458.226562 272.726562 457.988281 273.148438 C 457.925781 273.269531 457.867188 273.390625 457.867188 273.511719 C 457.261719 279.1875 458.109375 284.320312 460.402344 288.90625 C 462.636719 293.316406 466.199219 297.238281 471.089844 300.5625 C 470.121094 310.824219 468.371094 320.789062 465.777344 330.628906 C 463.179688 340.53125 459.675781 350.25 455.390625 359.730469 C 455.210938 360.152344 455.390625 360.695312 455.8125 360.878906 C 456.234375 361.058594 456.777344 360.878906 456.960938 360.457031 C 461.308594 350.914062 464.808594 341.132812 467.464844 331.113281 C 470.0625 321.269531 471.875 311.125 472.839844 300.742188 C 477.667969 298.449219 481.171875 295.1875 483.464844 290.960938 C 485.699219 286.433594 486.667969 281.121094 486.242188 274.839844 Z M 481.65625 264.03125 C 482.078125 266.6875 482.136719 269.105469 481.835938 271.277344 C 481.472656 273.753906 480.6875 275.925781 479.421875 277.859375 C 478.273438 278.703125 477.246094 279.609375 476.28125 280.515625 C 476.101562 277.796875 475.4375 275.019531 474.347656 272.125 C 474.289062 271.882812 474.167969 271.640625 474.046875 271.398438 C 474.953125 269.828125 476.101562 268.378906 477.488281 267.113281 C 478.695312 265.964844 480.085938 264.9375 481.65625 264.03125 Z M 475.375 257.027344 C 475.859375 258.234375 476.222656 259.445312 476.582031 260.652344 C 476.945312 262.101562 477.246094 263.550781 477.429688 264.9375 C 477.066406 265.238281 476.703125 265.542969 476.402344 265.84375 C 475.253906 266.929688 474.226562 268.136719 473.324219 269.464844 C 472.597656 267.898438 471.753906 266.328125 470.785156 264.757812 C 471.390625 262.160156 472.898438 259.566406 475.375 257.027344 Z M 470.183594 297.664062 C 466.441406 294.824219 463.664062 291.566406 461.910156 288.003906 C 459.980469 284.078125 459.132812 279.730469 459.4375 274.902344 C 461.972656 276.410156 464.144531 278.222656 466.015625 280.214844 C 468.070312 282.449219 469.761719 284.921875 471.027344 287.699219 C 469.519531 290.960938 469.21875 294.28125 470.183594 297.664062 Z M 467.222656 279.007812 C 466.558594 278.28125 465.777344 277.558594 464.992188 276.894531 C 464.628906 275.324219 464.6875 273.269531 465.171875 270.855469 C 465.59375 268.621094 466.441406 266.023438 467.585938 263.066406 C 469.820312 266.386719 471.511719 269.648438 472.71875 272.726562 C 473.988281 276.046875 474.652344 279.246094 474.652344 282.207031 C 473.5625 283.351562 472.660156 284.5625 471.933594 285.769531 C 470.726562 283.292969 469.15625 281.058594 467.222656 279.007812 Z M 481.835938 289.996094 C 479.78125 293.796875 476.644531 296.757812 472.355469 298.871094 C 470.785156 294.945312 471.027344 291.140625 472.960938 287.457031 C 474.953125 283.714844 478.816406 280.03125 484.554688 276.410156 C 484.734375 281.722656 483.828125 286.25 481.835938 289.996094 Z M 283.859375 258.234375 C 284.28125 258.417969 284.824219 258.175781 284.945312 257.691406 C 292.3125 237.105469 304.871094 219.59375 320.6875 207.398438 C 335.964844 195.566406 354.378906 188.679688 374.121094 188.679688 C 393.324219 188.679688 411.253906 195.203125 426.289062 206.433594 C 432.386719 210.960938 438 216.273438 443.011719 222.25 C 442.347656 221.890625 441.625 221.464844 440.960938 221.105469 L 440.839844 221.042969 C 436.554688 218.75 432.207031 216.878906 427.796875 215.429688 C 421.21875 213.253906 414.515625 211.925781 407.691406 211.503906 C 407.210938 211.503906 406.785156 211.867188 406.785156 212.347656 C 406.785156 212.589844 406.847656 212.832031 407.027344 213.011719 C 412.339844 218.328125 417.835938 221.828125 423.449219 223.398438 C 429.003906 224.96875 434.621094 224.789062 440.417969 222.734375 C 442.347656 223.761719 444.222656 224.847656 446.09375 226.054688 C 452.554688 234.449219 457.988281 243.988281 462.03125 254.371094 C 462.214844 254.792969 462.695312 255.035156 463.179688 254.855469 C 463.601562 254.675781 463.84375 254.191406 463.664062 253.707031 C 459.558594 243.140625 454.0625 233.480469 447.480469 224.96875 C 447.421875 224.90625 447.359375 224.789062 447.300781 224.726562 C 441.445312 217.121094 434.742188 210.476562 427.316406 204.921875 C 411.980469 193.570312 393.746094 186.929688 374.121094 186.929688 C 353.957031 186.929688 335.179688 193.996094 319.601562 206.070312 C 310.667969 212.953125 302.816406 221.527344 296.234375 231.308594 C 296.476562 230.644531 296.660156 229.980469 296.898438 229.316406 L 296.898438 229.195312 C 297.5625 226.902344 298.167969 224.546875 298.652344 222.191406 C 299.980469 215.730469 300.582031 209.027344 300.402344 202.144531 C 300.402344 201.664062 299.980469 201.300781 299.496094 201.300781 C 299.195312 201.300781 298.890625 201.480469 298.773438 201.722656 C 295.449219 207.820312 293.457031 213.132812 292.855469 217.722656 C 292.25 222.25 293.035156 226.054688 295.089844 229.132812 C 293.941406 232.9375 292.492188 236.679688 290.800781 240.304688 C 290.800781 240.363281 290.800781 240.363281 290.742188 240.425781 C 287.902344 245.738281 285.367188 251.292969 283.253906 257.089844 C 283.132812 257.570312 283.375 258.117188 283.859375 258.234375 Z M 423.933594 221.769531 C 419.222656 220.441406 414.574219 217.664062 409.988281 213.4375 C 415.78125 213.980469 421.578125 215.1875 427.195312 217.058594 C 430.878906 218.265625 434.558594 219.835938 438.183594 221.648438 C 433.351562 223.097656 428.582031 223.15625 423.933594 221.769531 Z M 294.605469 218.023438 C 295.089844 214.460938 296.417969 210.355469 298.710938 205.707031 C 298.652344 211.261719 298.046875 216.636719 296.960938 221.890625 C 296.597656 223.578125 296.234375 225.210938 295.753906 226.839844 C 294.546875 224.425781 294.121094 221.464844 294.605469 218.023438 Z M 410.410156 246.34375 C 409.445312 247.308594 408.898438 248.574219 408.898438 250.023438 C 408.898438 251.472656 409.503906 252.800781 410.410156 253.707031 C 411.375 254.675781 412.644531 255.21875 414.09375 255.21875 C 415.542969 255.21875 416.871094 254.613281 417.777344 253.707031 C 418.742188 252.742188 419.285156 251.472656 419.285156 250.023438 C 419.285156 248.574219 418.679688 247.246094 417.777344 246.34375 C 416.808594 245.375 415.542969 244.832031 414.09375 244.832031 C 412.644531 244.832031 411.316406 245.375 410.410156 246.34375 Z M 417.59375 250.085938 C 417.59375 251.050781 417.171875 251.957031 416.566406 252.5625 C 415.902344 253.226562 415.058594 253.585938 414.09375 253.585938 C 413.125 253.585938 412.222656 253.164062 411.617188 252.5625 C 410.953125 251.898438 410.589844 251.050781 410.589844 250.085938 C 410.589844 249.121094 411.011719 248.214844 411.617188 247.609375 C 412.28125 246.945312 413.125 246.582031 414.09375 246.582031 C 415.058594 246.582031 415.964844 247.007812 416.566406 247.609375 C 417.230469 248.214844 417.59375 249.121094 417.59375 250.085938 Z M 469.761719 239.820312 C 470.847656 239.820312 471.8125 239.398438 472.539062 238.675781 C 473.261719 237.949219 473.683594 236.984375 473.683594 235.898438 C 473.683594 234.808594 473.261719 233.84375 472.539062 233.121094 C 471.8125 232.394531 470.847656 231.972656 469.761719 231.972656 C 468.671875 231.972656 467.707031 232.394531 466.984375 233.121094 C 466.257812 233.84375 465.835938 234.808594 465.835938 235.898438 C 465.835938 236.984375 466.257812 237.949219 466.984375 238.675781 C 467.707031 239.398438 468.671875 239.820312 469.761719 239.820312 Z M 468.25 234.386719 C 468.671875 233.964844 469.21875 233.722656 469.820312 233.722656 C 470.425781 233.722656 470.96875 233.964844 471.390625 234.386719 C 471.8125 234.808594 472.054688 235.351562 472.054688 235.957031 C 472.054688 236.5625 471.8125 237.105469 471.390625 237.527344 C 470.96875 237.949219 470.425781 238.191406 469.820312 238.191406 C 469.21875 238.191406 468.671875 237.949219 468.25 237.527344 C 467.828125 237.105469 467.585938 236.5625 467.585938 235.957031 C 467.585938 235.292969 467.828125 234.75 468.25 234.386719 Z M 431.542969 340.410156 L 427.253906 344.695312 L 431.542969 348.984375 C 431.902344 349.347656 431.902344 349.890625 431.542969 350.191406 C 431.179688 350.554688 430.636719 350.554688 430.335938 350.191406 L 426.046875 345.902344 L 421.761719 350.191406 C 421.398438 350.554688 420.855469 350.554688 420.554688 350.191406 C 420.191406 349.828125 420.191406 349.285156 420.554688 348.984375 L 424.839844 344.695312 L 420.554688 340.410156 C 420.191406 340.046875 420.191406 339.503906 420.554688 339.203125 C 420.914062 338.839844 421.457031 338.839844 421.761719 339.203125 L 426.046875 343.488281 L 430.335938 339.203125 C 430.695312 338.839844 431.238281 338.839844 431.542969 339.203125 C 431.902344 339.503906 431.902344 340.046875 431.542969 340.410156 Z M 287.722656 348.921875 C 287.722656 348.984375 287.722656 349.042969 287.78125 349.105469 C 288.445312 351.457031 289.230469 353.8125 290.015625 356.046875 C 290.199219 356.46875 290.679688 356.710938 291.105469 356.589844 C 291.527344 356.410156 291.769531 355.925781 291.648438 355.503906 C 290.863281 353.332031 290.136719 351.035156 289.472656 348.742188 C 290.441406 341.980469 291.707031 335.578125 293.398438 329.421875 C 300.765625 327.066406 306.5 321.996094 310.425781 314.207031 C 314.410156 306.417969 316.703125 295.851562 317.1875 282.566406 C 317.1875 282.328125 317.125 282.023438 316.886719 281.84375 C 316.523438 281.542969 315.980469 281.601562 315.675781 281.964844 C 304.75 294.644531 296.777344 310.160156 291.828125 328.457031 L 291.769531 328.574219 C 290.378906 333.707031 289.230469 339.082031 288.328125 344.636719 C 287.117188 339.988281 286.152344 335.15625 285.367188 330.207031 C 283.917969 320.789062 283.132812 310.945312 283.011719 301.285156 C 287.300781 299.351562 290.257812 296.394531 291.890625 292.410156 C 293.519531 288.304688 293.699219 283.171875 292.433594 276.953125 C 292.433594 276.773438 292.3125 276.652344 292.191406 276.46875 C 291.890625 276.109375 291.285156 276.109375 290.984375 276.410156 C 289.957031 277.4375 288.992188 278.402344 288.085938 279.367188 C 288.507812 277.859375 288.808594 276.347656 288.992188 274.78125 C 289.351562 271.578125 289.171875 268.320312 288.445312 265 C 288.445312 264.878906 288.386719 264.757812 288.265625 264.636719 C 287.964844 264.273438 287.421875 264.152344 287.058594 264.457031 C 285.367188 265.722656 283.859375 267.050781 282.589844 268.378906 C 282.410156 267.113281 282.109375 265.84375 281.5625 264.574219 C 280.777344 262.703125 279.570312 260.894531 277.941406 259.082031 C 277.882812 259.019531 277.820312 258.960938 277.761719 258.898438 C 277.398438 258.597656 276.855469 258.71875 276.554688 259.082031 C 274.742188 261.558594 273.535156 263.972656 272.929688 266.144531 C 272.566406 267.59375 272.445312 268.984375 272.628906 270.371094 C 271.84375 269.890625 271 269.464844 270.152344 269.042969 C 270.09375 268.984375 269.972656 268.984375 269.851562 268.984375 C 269.367188 268.921875 268.945312 269.285156 268.886719 269.769531 C 268.460938 273.210938 268.644531 276.230469 269.367188 278.945312 C 269.789062 280.574219 270.453125 282.085938 271.300781 283.472656 C 269.1875 282.75 266.832031 282.386719 264.234375 282.207031 C 263.753906 282.207031 263.332031 282.566406 263.332031 283.050781 C 263.332031 283.171875 263.332031 283.292969 263.390625 283.351562 C 265.324219 289.753906 267.796875 294.402344 270.878906 297.421875 C 273.835938 300.320312 277.277344 301.707031 281.324219 301.585938 C 281.445312 311.246094 282.226562 321.027344 283.675781 330.449219 C 284.644531 336.789062 285.972656 343.007812 287.722656 348.921875 Z M 315.316406 284.984375 C 314.652344 296.816406 312.476562 306.296875 308.855469 313.359375 C 305.292969 320.363281 300.28125 325.011719 293.882812 327.367188 C 298.53125 310.886719 305.65625 296.816406 315.316406 284.984375 Z M 282.347656 271.339844 C 283.554688 269.769531 285.125 268.257812 287 266.75 C 287.480469 269.40625 287.542969 272.003906 287.238281 274.597656 C 286.878906 277.617188 286.03125 280.574219 284.644531 283.535156 C 284.222656 284.136719 283.859375 284.679688 283.496094 285.285156 C 282.832031 282.085938 281.625 279.1875 279.753906 276.710938 C 279.691406 276.589844 279.570312 276.53125 279.511719 276.410156 C 280.054688 274.660156 281.019531 272.96875 282.347656 271.339844 Z M 274.679688 266.628906 C 275.105469 264.878906 276.007812 263.007812 277.398438 261.011719 C 278.546875 262.402344 279.390625 263.789062 279.996094 265.238281 C 280.660156 266.871094 281.019531 268.5 281.019531 270.191406 C 279.8125 271.699219 278.90625 273.269531 278.304688 274.839844 C 277.277344 273.753906 276.128906 272.667969 274.800781 271.761719 C 274.199219 270.191406 274.199219 268.5 274.679688 266.628906 Z M 272.085938 296.152344 C 269.429688 293.558594 267.195312 289.511719 265.503906 284.078125 C 268.703125 284.378906 271.480469 285.164062 273.894531 286.433594 C 276.492188 287.820312 278.726562 289.753906 280.476562 292.289062 C 279.933594 294.886719 280.054688 297.359375 280.898438 299.777344 C 277.519531 299.835938 274.558594 298.628906 272.085938 296.152344 Z M 281.082031 290.175781 C 279.332031 287.941406 277.21875 286.191406 274.742188 284.863281 C 274.679688 284.863281 274.621094 284.800781 274.558594 284.800781 C 272.929688 283.050781 271.78125 280.9375 271.117188 278.523438 C 270.515625 276.347656 270.332031 273.933594 270.574219 271.21875 C 273.894531 272.96875 276.492188 275.140625 278.363281 277.738281 C 280.417969 280.574219 281.683594 283.898438 282.109375 287.699219 C 281.867188 288.242188 281.625 288.726562 281.445312 289.210938 C 281.324219 289.570312 281.203125 289.875 281.082031 290.175781 Z M 283.011719 289.875 C 284.402344 286.371094 287.058594 282.6875 290.984375 278.765625 C 291.890625 283.957031 291.648438 288.242188 290.257812 291.683594 C 288.871094 295.125 286.332031 297.722656 282.589844 299.472656 C 281.5625 296.457031 281.683594 293.253906 283.011719 289.875 Z M 337.113281 227.203125 C 338.558594 227.203125 339.890625 226.597656 340.792969 225.691406 C 341.761719 224.726562 342.304688 223.457031 342.304688 222.011719 C 342.304688 220.5625 341.699219 219.234375 340.792969 218.328125 C 339.828125 217.359375 338.558594 216.816406 337.113281 216.816406 C 335.664062 216.816406 334.332031 217.421875 333.429688 218.328125 C 332.460938 219.292969 331.917969 220.5625 331.917969 222.011719 C 331.917969 223.457031 332.523438 224.789062 333.429688 225.691406 C 334.332031 226.597656 335.664062 227.203125 337.113281 227.203125 Z M 334.636719 219.472656 C 335.300781 218.808594 336.144531 218.449219 337.113281 218.449219 C 338.078125 218.449219 338.984375 218.871094 339.585938 219.472656 C 340.25 220.136719 340.613281 220.984375 340.613281 221.949219 C 340.613281 222.914062 340.191406 223.820312 339.585938 224.425781 C 338.921875 225.089844 338.078125 225.453125 337.113281 225.453125 C 336.144531 225.453125 335.238281 225.027344 334.636719 224.425781 C 333.972656 223.761719 333.609375 222.914062 333.609375 221.949219 C 333.609375 220.984375 333.972656 220.078125 334.636719 219.472656 Z M 269.125 314.871094 C 268.039062 314.871094 267.074219 315.292969 266.347656 316.015625 C 265.625 316.742188 265.203125 317.707031 265.203125 318.792969 C 265.203125 319.882812 265.625 320.847656 266.347656 321.570312 C 267.074219 322.296875 268.039062 322.71875 269.125 322.71875 C 270.214844 322.71875 271.179688 322.296875 271.902344 321.570312 C 272.628906 320.847656 273.050781 319.882812 273.050781 318.792969 C 273.050781 317.707031 272.628906 316.742188 271.902344 316.015625 C 271.179688 315.292969 270.214844 314.871094 269.125 314.871094 Z M 270.636719 320.304688 C 270.214844 320.726562 269.667969 320.96875 269.066406 320.96875 C 268.460938 320.96875 267.917969 320.726562 267.496094 320.304688 C 267.074219 319.882812 266.832031 319.339844 266.832031 318.734375 C 266.832031 318.128906 267.074219 317.585938 267.496094 317.164062 C 267.917969 316.742188 268.460938 316.5 269.066406 316.5 C 269.667969 316.5 270.214844 316.742188 270.636719 317.164062 C 271.058594 317.585938 271.300781 318.128906 271.300781 318.734375 C 271.300781 319.398438 271.058594 319.941406 270.636719 320.304688 Z M 327.933594 380.621094 C 329.382812 380.621094 330.710938 380.015625 331.617188 379.113281 C 332.582031 378.144531 333.125 376.878906 333.125 375.429688 C 333.125 373.980469 332.523438 372.652344 331.617188 371.746094 C 330.652344 370.78125 329.382812 370.234375 327.933594 370.234375 C 326.484375 370.234375 325.15625 370.839844 324.25 371.746094 C 323.285156 372.710938 322.742188 373.980469 322.742188 375.429688 C 322.742188 376.878906 323.34375 378.207031 324.25 379.113281 C 325.15625 380.078125 326.484375 380.621094 327.933594 380.621094 Z M 325.457031 372.894531 C 326.121094 372.230469 326.96875 371.867188 327.933594 371.867188 C 328.898438 371.867188 329.804688 372.289062 330.410156 372.894531 C 331.074219 373.558594 331.4375 374.402344 331.4375 375.367188 C 331.4375 376.335938 331.011719 377.238281 330.410156 377.84375 C 329.746094 378.507812 328.898438 378.871094 327.933594 378.871094 C 326.96875 378.871094 326.0625 378.449219 325.457031 377.84375 C 324.792969 377.179688 324.433594 376.335938 324.433594 375.367188 C 324.433594 374.402344 324.792969 373.558594 325.457031 372.894531 Z M 439.753906 383.277344 C 431 392.695312 420.671875 400.304688 409.324219 405.4375 C 407.632812 406.222656 405.941406 406.886719 404.191406 407.550781 C 406.605469 405.195312 408.898438 402.660156 411.074219 400.0625 L 411.132812 399.941406 C 413.003906 397.648438 414.816406 395.292969 416.445312 392.816406 C 420.792969 386.417969 424.417969 379.414062 427.316406 371.867188 C 427.496094 371.445312 427.253906 370.902344 426.832031 370.71875 C 426.53125 370.597656 426.226562 370.660156 425.988281 370.839844 C 419.707031 375.550781 415.179688 380.257812 412.402344 385.027344 C 409.683594 389.738281 408.71875 394.449219 409.445312 399.15625 C 406.605469 402.597656 403.464844 405.859375 400.144531 408.878906 C 391.875 411.59375 383.117188 413.042969 374.0625 413.042969 C 358 413.042969 342.90625 408.515625 329.5625 400.425781 C 315.796875 392.214844 303.902344 380.078125 295.027344 365.347656 C 294.785156 364.921875 294.242188 364.800781 293.820312 365.042969 C 293.398438 365.285156 293.277344 365.828125 293.519531 366.25 C 298.289062 374.101562 303.902344 381.285156 310.183594 387.503906 C 307.828125 386.539062 305.472656 385.691406 303.117188 384.96875 L 303.058594 384.96875 C 301.730469 384.546875 300.339844 384.183594 299.011719 383.882812 C 293.640625 382.554688 288.207031 381.890625 282.710938 381.828125 C 282.226562 381.828125 281.867188 382.191406 281.867188 382.675781 C 281.867188 382.914062 281.988281 383.15625 282.167969 383.339844 C 285.308594 386.175781 288.628906 387.925781 292.191406 388.46875 C 295.632812 389.015625 299.253906 388.410156 303 386.78125 C 306.742188 387.925781 310.425781 389.375 314.109375 391.1875 C 318.695312 395.351562 323.648438 398.976562 328.839844 402.175781 C 342.425781 410.386719 357.882812 415.035156 374.242188 415.035156 C 383.542969 415.035156 392.539062 413.527344 401.050781 410.75 C 404.128906 409.722656 407.210938 408.574219 410.167969 407.1875 C 421.699219 401.933594 432.207031 394.207031 441.140625 384.605469 C 441.445312 384.242188 441.445312 383.699219 441.082031 383.398438 C 440.71875 383.097656 440.054688 382.976562 439.753906 383.277344 Z M 414.03125 385.996094 C 416.265625 382.128906 419.828125 378.207031 424.597656 374.34375 C 421.941406 380.621094 418.800781 386.476562 415.117188 391.972656 C 413.851562 393.84375 412.523438 395.65625 411.132812 397.40625 C 410.832031 393.601562 411.796875 389.796875 414.03125 385.996094 Z M 300.160156 385.933594 C 297.445312 386.839844 294.847656 387.082031 292.371094 386.71875 C 289.894531 386.355469 287.480469 385.332031 285.1875 383.640625 C 289.714844 383.820312 294.183594 384.484375 298.589844 385.570312 C 299.074219 385.632812 299.617188 385.753906 300.160156 385.933594 Z M 347.195312 384.304688 C 347.796875 384.90625 348.703125 385.332031 349.667969 385.332031 L 398.574219 385.332031 C 399.542969 385.332031 400.386719 384.90625 401.050781 384.304688 C 401.65625 383.699219 402.078125 382.792969 402.078125 381.828125 L 402.078125 379.414062 C 403.285156 379.113281 404.371094 378.449219 405.21875 377.480469 C 406.183594 376.394531 406.785156 374.945312 406.785156 373.375 L 406.785156 301.40625 C 406.785156 299.714844 406.0625 298.144531 404.976562 297 C 403.949219 295.972656 402.5 295.246094 400.929688 295.1875 C 400.929688 294.039062 400.445312 293.011719 399.664062 292.230469 C 398.878906 291.445312 397.789062 290.960938 396.582031 290.960938 L 392.296875 290.960938 L 392.296875 288.0625 C 392.660156 288.0625 393.019531 288.0625 393.382812 288.0625 C 394.167969 288.003906 394.890625 287.699219 395.4375 287.15625 C 395.980469 286.613281 396.28125 285.890625 396.28125 285.042969 C 396.28125 264.152344 394.652344 242.054688 393.867188 220.800781 L 393.867188 220.742188 C 393.867188 219.351562 391.511719 218.207031 387.648438 217.542969 C 384.207031 216.9375 379.4375 216.574219 374.183594 216.574219 C 368.929688 216.574219 364.160156 216.9375 360.71875 217.542969 C 356.855469 218.207031 354.5 219.351562 354.5 220.742188 C 353.714844 242.117188 353.230469 263.730469 352.085938 285.042969 C 352.085938 285.828125 352.386719 286.613281 352.929688 287.15625 C 353.472656 287.699219 354.199219 288.0625 354.984375 288.0625 C 355.34375 288.0625 355.707031 288.0625 356.070312 288.0625 L 356.070312 290.960938 L 351.78125 290.960938 C 350.574219 290.960938 349.488281 291.445312 348.703125 292.230469 C 347.917969 293.011719 347.4375 294.039062 347.4375 295.1875 C 345.867188 295.246094 344.476562 295.910156 343.449219 296.9375 L 343.390625 297 C 342.242188 298.144531 341.578125 299.65625 341.578125 301.40625 L 341.578125 373.4375 C 341.578125 374.945312 342.121094 376.394531 343.089844 377.480469 L 343.148438 377.542969 C 343.933594 378.449219 345.019531 379.113281 346.289062 379.472656 L 346.289062 381.890625 C 346.167969 382.792969 346.53125 383.640625 347.195312 384.304688 Z M 354.984375 286.3125 C 354.621094 286.3125 354.320312 286.128906 354.136719 285.949219 C 353.894531 285.707031 353.777344 285.40625 353.777344 285.042969 L 356.191406 220.742188 C 356.191406 220.320312 358 219.777344 360.960938 219.234375 C 364.339844 218.628906 368.992188 218.265625 374.121094 218.265625 C 379.253906 218.265625 383.902344 218.628906 387.285156 219.234375 C 390.242188 219.777344 392.054688 220.320312 392.054688 220.742188 L 392.539062 233.964844 C 393.082031 249.058594 395.253906 270.734375 394.46875 285.042969 C 394.46875 285.40625 394.347656 285.707031 394.109375 285.949219 C 393.867188 286.191406 393.5625 286.3125 393.261719 286.3125 C 392.71875 286.3125 392.234375 286.371094 391.691406 286.371094 C 391.570312 286.3125 391.449219 286.3125 391.332031 286.3125 L 370.679688 286.3125 C 365.429688 286.191406 360.113281 286.128906 354.984375 286.3125 Z M 390.484375 288.0625 L 390.484375 290.960938 L 357.761719 290.960938 L 357.761719 288.125 C 368.445312 288.304688 379.738281 288.183594 390.484375 288.0625 Z M 344.355469 376.335938 C 343.632812 375.488281 343.269531 374.523438 343.269531 373.375 L 343.269531 301.40625 C 343.269531 300.199219 343.753906 299.050781 344.597656 298.265625 L 344.660156 298.207031 C 345.445312 297.421875 346.53125 296.9375 347.738281 296.9375 L 348.28125 296.9375 C 348.765625 296.9375 349.125 296.574219 349.125 296.09375 L 349.125 295.308594 C 349.125 294.582031 349.429688 293.917969 349.910156 293.4375 C 350.394531 292.953125 351.058594 292.652344 351.78125 292.652344 L 396.523438 292.652344 C 397.246094 292.652344 397.910156 292.953125 398.394531 293.4375 C 398.878906 293.917969 399.179688 294.582031 399.179688 295.308594 L 399.179688 296.09375 C 399.179688 296.09375 399.179688 296.09375 399.179688 296.152344 C 399.179688 297.421875 399.117188 335.21875 399.117188 335.21875 C 399.117188 335.699219 399.480469 336.0625 399.964844 336.0625 C 400.445312 336.0625 400.808594 335.699219 400.808594 335.21875 L 400.871094 297 C 401.957031 297.058594 402.984375 297.542969 403.707031 298.265625 C 404.492188 299.050781 405.035156 300.199219 405.035156 301.40625 L 405.035156 373.4375 C 405.035156 374.582031 404.613281 375.609375 403.949219 376.394531 C 403.285156 377.179688 402.320312 377.722656 401.230469 377.84375 L 393.867188 377.84375 C 393.382812 377.84375 393.019531 378.207031 393.019531 378.6875 C 393.019531 379.171875 393.382812 379.535156 393.867188 379.535156 L 400.386719 379.535156 L 400.386719 381.769531 C 400.386719 382.25 400.207031 382.675781 399.84375 382.976562 C 399.542969 383.277344 399.058594 383.519531 398.636719 383.519531 L 349.730469 383.519531 C 349.246094 383.519531 348.824219 383.339844 348.523438 382.976562 C 348.222656 382.675781 347.980469 382.191406 347.980469 381.769531 L 347.980469 379.535156 L 368.328125 379.535156 C 368.808594 379.535156 369.171875 379.171875 369.171875 378.6875 C 369.171875 378.207031 368.808594 377.84375 368.328125 377.84375 L 347.195312 377.84375 C 345.988281 377.664062 345.082031 377.121094 344.355469 376.335938 Z M 359.933594 234.207031 L 358.183594 280.214844 C 358.183594 280.695312 357.761719 281.058594 357.277344 281.058594 C 356.792969 281.058594 356.433594 280.636719 356.433594 280.152344 L 358.183594 234.144531 C 358.183594 233.664062 358.605469 233.300781 359.089844 233.300781 C 359.570312 233.300781 359.933594 233.722656 359.933594 234.207031 Z M 463.601562 310.160156 C 463.300781 309.796875 462.757812 309.738281 462.394531 309.980469 C 460.339844 311.550781 458.46875 313.179688 456.898438 314.75 C 456.960938 313.601562 457.019531 312.335938 457.019531 311.007812 C 457.019531 308.652344 456.839844 306.117188 456.539062 303.277344 C 456.539062 303.097656 456.417969 302.855469 456.296875 302.734375 C 455.933594 302.433594 455.390625 302.433594 455.089844 302.734375 C 454.183594 303.640625 453.398438 304.546875 452.613281 305.511719 C 452.191406 304.304688 451.769531 303.097656 451.34375 302.011719 C 450.679688 300.378906 450.015625 298.871094 449.292969 297.421875 C 449.050781 297 448.566406 296.816406 448.144531 297.058594 C 447.964844 297.121094 447.84375 297.238281 447.78125 297.421875 C 446.636719 299.234375 445.730469 301.042969 445.003906 302.855469 C 444.523438 304.003906 444.160156 305.148438 443.859375 306.296875 C 443.496094 305.753906 443.074219 305.210938 442.652344 304.667969 C 442.347656 304.304688 441.804688 304.183594 441.445312 304.484375 C 441.324219 304.605469 441.203125 304.726562 441.140625 304.847656 C 440.476562 306.175781 439.875 307.503906 439.390625 308.894531 C 439.089844 309.859375 438.785156 310.824219 438.605469 311.789062 C 437.761719 311.066406 436.914062 310.402344 436.007812 309.679688 C 435.648438 309.375 435.105469 309.4375 434.800781 309.796875 C 434.679688 309.980469 434.621094 310.160156 434.621094 310.34375 C 434.679688 317.648438 436.007812 323.746094 438.667969 328.695312 C 441.261719 333.527344 445.003906 337.210938 450.015625 339.804688 C 449.59375 346.386719 449.050781 352.726562 448.328125 358.824219 C 447.601562 365.164062 446.695312 371.203125 445.667969 377 C 445.609375 377.480469 445.910156 377.902344 446.394531 378.023438 C 446.878906 378.085938 447.300781 377.785156 447.421875 377.300781 C 448.507812 371.445312 449.351562 365.347656 450.078125 359.007812 C 450.800781 352.847656 451.34375 346.449219 451.769531 339.867188 C 458.46875 336.546875 462.515625 326.886719 463.902344 310.765625 C 463.78125 310.582031 463.722656 310.34375 463.601562 310.160156 Z M 454.96875 305.390625 C 455.148438 307.445312 455.210938 309.316406 455.269531 311.066406 C 455.269531 313.238281 455.210938 315.171875 454.96875 316.863281 C 454.363281 317.527344 453.820312 318.191406 453.335938 318.855469 C 452.855469 319.519531 452.371094 320.183594 451.949219 320.847656 C 451.34375 318.976562 450.378906 316.921875 449.171875 314.6875 C 449.171875 314.6875 449.113281 314.628906 449.113281 314.628906 C 449.894531 312.816406 450.863281 311.007812 451.949219 309.316406 C 452.855469 307.988281 453.820312 306.660156 454.96875 305.390625 Z M 446.515625 303.519531 C 447 302.25 447.664062 300.984375 448.386719 299.714844 C 448.871094 300.679688 449.292969 301.707031 449.714844 302.734375 C 450.320312 304.183594 450.800781 305.691406 451.34375 307.261719 C 451.105469 307.625 450.800781 307.988281 450.558594 308.347656 C 449.59375 309.796875 448.808594 311.246094 448.085938 312.757812 C 447.238281 311.308594 446.273438 309.796875 445.125 308.230469 C 445.429688 306.660156 445.851562 305.089844 446.515625 303.519531 Z M 450.199219 337.996094 C 445.730469 335.578125 442.347656 332.199219 440.054688 327.851562 C 437.761719 323.566406 436.492188 318.3125 436.25 312.152344 C 441.683594 316.621094 445.609375 321.027344 447.902344 325.375 C 450.199219 329.601562 450.984375 333.828125 450.199219 337.996094 Z M 449.835938 325.253906 C 449.714844 325.011719 449.59375 324.773438 449.472656 324.589844 C 447.421875 320.789062 444.28125 316.984375 440.054688 313.121094 C 440.296875 311.851562 440.597656 310.644531 441.019531 309.496094 C 441.324219 308.589844 441.683594 307.746094 442.046875 306.839844 C 444.339844 310.039062 446.214844 312.9375 447.664062 315.535156 C 449.171875 318.3125 450.199219 320.847656 450.742188 323.019531 C 450.378906 323.746094 450.078125 324.46875 449.835938 325.253906 Z M 452.007812 337.632812 C 452.492188 334.371094 452.128906 331.050781 450.921875 327.792969 C 451.464844 325.195312 452.671875 322.539062 454.726562 319.882812 C 456.539062 317.527344 458.890625 315.113281 461.851562 312.636719 C 460.523438 325.917969 457.203125 334.25 452.007812 337.632812 Z M 312.417969 339.082031 L 310.667969 339.082031 C 310.667969 341.980469 309.519531 344.574219 307.648438 346.449219 C 305.835938 348.257812 303.300781 349.464844 300.460938 349.464844 L 300.28125 349.464844 L 300.28125 351.21875 C 303.179688 351.21875 305.777344 352.363281 307.648438 354.234375 C 309.519531 356.109375 310.667969 358.703125 310.667969 361.542969 L 312.417969 361.542969 C 312.417969 358.703125 313.5625 356.109375 315.496094 354.234375 C 317.367188 352.363281 319.964844 351.21875 322.863281 351.21875 L 322.863281 349.464844 C 319.964844 349.464844 317.367188 348.320312 315.496094 346.449219 C 313.625 344.515625 312.417969 341.917969 312.417969 339.082031 Z M 314.289062 352.96875 C 313.140625 354.117188 312.234375 355.503906 311.570312 357.015625 C 310.96875 355.503906 310.0625 354.117188 308.855469 352.96875 C 307.707031 351.820312 306.320312 350.914062 304.808594 350.3125 C 306.320312 349.707031 307.707031 348.800781 308.855469 347.65625 C 310 346.507812 310.90625 345.121094 311.511719 343.609375 C 312.113281 345.121094 313.019531 346.507812 314.167969 347.65625 C 315.316406 348.800781 316.703125 349.707031 318.214844 350.3125 C 316.765625 350.914062 315.4375 351.882812 314.289062 352.96875 Z M 309.519531 249.359375 L 313.140625 245.738281 L 309.519531 242.117188 C 309.15625 241.753906 309.15625 241.210938 309.519531 240.90625 C 309.882812 240.546875 310.425781 240.546875 310.726562 240.90625 L 314.347656 244.53125 L 317.972656 240.90625 C 318.332031 240.546875 318.878906 240.546875 319.179688 240.90625 C 319.542969 241.269531 319.542969 241.8125 319.179688 242.117188 L 315.554688 245.738281 L 319.179688 249.359375 C 319.542969 249.722656 319.542969 250.265625 319.179688 250.566406 C 318.816406 250.929688 318.273438 250.929688 317.972656 250.566406 L 314.347656 246.945312 L 310.726562 250.566406 C 310.363281 250.929688 309.820312 250.929688 309.519531 250.566406 C 309.21875 250.265625 309.21875 249.722656 309.519531 249.359375 Z M 309.519531 249.359375 " fill-opacity="1" fill-rule="nonzero"/></g><g clip-path="url(#5c80325e80)"><path fill="#ffffff" d="M 263.210938 419.761719 L 259.703125 419.816406 L 263.109375 420.484375 C 263.265625 420.539062 269.09375 421.671875 277.195312 423.324219 C 278.175781 423.53125 279.15625 423.738281 280.136719 423.941406 C 281.117188 423.890625 282.097656 423.839844 283.128906 423.789062 C 282.097656 423.582031 281.117188 423.375 280.1875 423.167969 C 274.566406 422.035156 269.714844 421.054688 266.671875 420.433594 C 279.621094 420.226562 324.980469 419.558594 344.949219 419.917969 C 347.527344 419.96875 351.089844 420.074219 355.320312 420.28125 C 361.71875 420.539062 369.769531 421.003906 379.003906 421.519531 C 386.640625 421.722656 395 421.984375 403.878906 422.34375 C 395.363281 421.777344 386.898438 421.261719 379.058594 420.796875 C 364.402344 419.917969 351.8125 419.300781 345 419.195312 C 321.726562 418.785156 263.78125 419.761719 263.210938 419.761719 Z M 481.277344 435.761719 C 481.226562 435.449219 481.125 435.140625 481.070312 434.832031 C 481.070312 434.726562 481.019531 434.675781 481.019531 434.574219 C 480.96875 434.367188 480.867188 434.160156 480.8125 433.953125 C 480.867188 434.109375 480.867188 434.316406 480.867188 434.46875 C 480.867188 434.523438 480.867188 434.574219 480.867188 434.675781 C 480.917969 434.933594 480.917969 435.242188 480.96875 435.5 " fill-opacity="1" fill-rule="nonzero"/></g><g clip-path="url(#c5c07f5f1a)"><path fill="#ffffff" d="M 481.277344 435.761719 C 481.433594 435.914062 481.589844 436.019531 481.742188 436.171875 C 481.742188 435.914062 481.691406 435.65625 481.691406 435.398438 C 481.691406 435.296875 481.691406 435.191406 481.640625 435.089844 C 481.433594 432.972656 480.96875 431.0625 479.730469 429.515625 C 478.027344 427.402344 475.085938 426.109375 470.132812 425.234375 C 462.804688 423.941406 414.765625 421.777344 379.058594 420.796875 C 370.128906 420.539062 361.925781 420.382812 355.371094 420.28125 C 351.191406 420.226562 347.683594 420.226562 345 420.28125 C 329.675781 420.589844 299.332031 422.136719 280.1875 423.167969 C 279.15625 423.222656 278.125 423.273438 277.195312 423.324219 C 268.835938 423.789062 263.265625 424.097656 263.058594 424.097656 L 259.601562 424.355469 L 263.058594 424.921875 C 263.625 425.027344 321.78125 434.316406 332.617188 435.964844 C 341.851562 437.359375 354.648438 438.597656 368.632812 439.734375 C 369.5625 439.785156 370.492188 439.886719 371.421875 439.941406 C 372.347656 439.734375 373.328125 439.578125 374.207031 439.371094 C 373.277344 439.320312 372.296875 439.21875 371.367188 439.164062 C 356.351562 438.03125 342.523438 436.6875 332.71875 435.191406 C 323.429688 433.800781 279.363281 426.730469 266.617188 424.71875 C 269.609375 424.5625 274.359375 424.304688 280.191406 423.941406 C 281.167969 423.890625 282.148438 423.839844 283.183594 423.789062 C 302.378906 422.757812 330.449219 421.3125 345.050781 421.054688 C 351.503906 420.949219 363.730469 421.105469 379.109375 421.519531 C 386.746094 421.722656 395.105469 421.984375 403.980469 422.34375 C 406.820312 422.445312 409.707031 422.550781 412.648438 422.652344 C 442.9375 423.839844 465.488281 425.128906 470.132812 425.957031 C 478.234375 427.347656 480.246094 429.980469 480.867188 433.953125 C 480.917969 434.109375 480.917969 434.316406 480.917969 434.46875 C 480.917969 434.523438 480.917969 434.574219 480.917969 434.675781 C 480.96875 434.933594 480.96875 435.242188 481.019531 435.503906 " fill-opacity="1" fill-rule="nonzero"/></g><g clip-path="url(#1db2ea205c)"><path fill="#ffffff" d="M 448.253906 430.601562 C 432.722656 431.375 415.074219 433.542969 403.101562 434.984375 C 402.019531 435.089844 401.039062 435.242188 400.058594 435.347656 C 400.058594 435.347656 400.058594 435.347656 400.007812 435.347656 C 399.957031 435.347656 399.902344 435.347656 399.851562 435.347656 C 399.4375 435.398438 398.769531 435.5 397.890625 435.605469 C 397.839844 435.605469 397.789062 435.605469 397.738281 435.605469 C 397.683594 435.605469 397.632812 435.605469 397.582031 435.605469 C 392.78125 436.277344 382.515625 437.824219 370.699219 439.886719 C 358.003906 442.105469 340.203125 445.460938 327.351562 449.019531 L 326.476562 449.28125 C 291.800781 458.773438 281.324219 461.664062 278.847656 460.375 C 277.558594 459.703125 276.164062 456.246094 274.976562 453.148438 C 273.636719 449.796875 272.808594 447.679688 271.832031 447.214844 L 271.261719 446.957031 L 271.261719 447.578125 C 271.261719 447.578125 271.3125 448.300781 271.367188 449.433594 C 271.417969 450.054688 271.46875 450.878906 271.570312 451.703125 C 271.570312 451.34375 271.519531 450.980469 271.519531 450.722656 C 271.675781 450.980469 271.882812 451.394531 272.140625 451.960938 C 272.242188 452.273438 272.398438 452.582031 272.5 452.890625 C 272.398438 451.960938 272.292969 451.136719 272.191406 450.414062 C 272.140625 449.691406 272.089844 449.074219 272.035156 448.558594 C 272.707031 449.589844 273.480469 451.601562 274.203125 453.40625 C 275.546875 456.761719 276.886719 460.21875 278.433594 460.992188 C 279.878906 461.714844 283.078125 461.355469 290.304688 459.652344 C 297.527344 457.949219 309.085938 454.75 326.578125 449.949219 L 327.457031 449.691406 C 340.820312 446.027344 359.5 442.46875 374.566406 439.941406 C 384.476562 438.238281 392.835938 437 397.117188 436.378906 C 397.632812 436.328125 398.097656 436.222656 398.460938 436.171875 C 398.460938 436.171875 398.511719 436.171875 398.511719 436.171875 C 399.128906 436.070312 399.59375 436.019531 399.851562 436.019531 C 399.902344 436.019531 399.957031 436.019531 400.058594 436.019531 C 401.039062 435.914062 402.019531 435.761719 403.101562 435.65625 C 414.714844 434.261719 431.691406 432.199219 446.859375 431.375 C 446.859375 431.375 446.914062 431.375 446.914062 431.375 C 453.980469 430.960938 460.691406 430.859375 466.210938 431.167969 C 472.765625 431.527344 477.152344 433.023438 480.039062 435.039062 C 480.8125 435.5 481.484375 436.019531 482.105469 436.585938 C 483.550781 437.925781 484.425781 439.421875 484.992188 440.867188 C 485.355469 441.847656 485.613281 442.882812 485.714844 443.808594 C 485.769531 444.015625 485.769531 444.171875 485.820312 444.378906 C 485.871094 444.636719 485.871094 444.894531 485.871094 445.152344 C 485.871094 445.253906 485.871094 445.359375 485.871094 445.511719 C 486.078125 451.5 480.144531 456.089844 474.261719 456.660156 C 471.214844 456.96875 461.722656 457.433594 448.925781 457.691406 C 462.082031 457.691406 471.886719 457.433594 475.191406 457.175781 C 478.285156 456.917969 481.589844 454.851562 484.011719 451.652344 C 485.613281 449.589844 486.542969 447.320312 486.644531 445.460938 C 486.644531 445.359375 486.644531 445.253906 486.644531 445.152344 C 486.644531 444.839844 486.59375 444.53125 486.542969 444.273438 C 486.492188 444.066406 486.492188 443.914062 486.4375 443.707031 C 485.664062 440.144531 484.167969 437.515625 481.691406 435.398438 C 481.433594 435.140625 481.125 434.933594 480.8125 434.726562 C 479.371094 433.695312 477.667969 432.820312 475.707031 432.148438 C 473.074219 431.269531 469.875 430.703125 466.261719 430.496094 C 461.101562 430.1875 454.859375 430.289062 448.253906 430.601562 Z M 448.253906 430.601562 " fill-opacity="1" fill-rule="nonzero"/></g><g clip-path="url(#9ffcbfcc70)"><path fill="#ffffff" d="M 448.253906 430.601562 C 442.992188 430.859375 437.054688 431.269531 430.503906 431.890625 C 418.996094 432.921875 407.953125 434.316406 400.058594 435.347656 C 400.058594 435.347656 400.058594 435.347656 400.007812 435.347656 C 399.285156 435.449219 398.5625 435.554688 397.839844 435.605469 C 397.789062 435.605469 397.738281 435.605469 397.683594 435.605469 C 397.632812 435.605469 397.582031 435.605469 397.53125 435.605469 C 394.796875 436.019531 385.972656 437.667969 374.621094 439.992188 C 372.863281 440.351562 371.007812 440.765625 369.097656 441.125 C 356.765625 443.757812 339.375 447.628906 326.269531 451.394531 L 325.390625 451.652344 C 290.871094 461.613281 280.394531 464.605469 277.917969 463.367188 C 276.628906 462.695312 275.289062 458.824219 274.253906 455.730469 C 273.429688 453.304688 272.808594 451.5 272.191406 450.464844 C 271.933594 450 271.625 449.691406 271.367188 449.484375 C 271.3125 449.484375 271.3125 449.433594 271.261719 449.433594 L 270.695312 449.175781 L 270.695312 449.796875 C 270.695312 449.847656 270.746094 454.078125 271.570312 458.566406 C 272.65625 464.707031 274.460938 468.527344 276.9375 469.816406 C 281.375 472.136719 292.574219 470.382812 303.410156 468.628906 C 306.917969 468.0625 310.273438 467.546875 313.316406 467.132812 C 327.816406 465.277344 392.421875 457.949219 420.597656 458.414062 C 446.65625 458.824219 469.308594 457.792969 474.363281 457.328125 C 477.5625 457.019531 480.761719 455.574219 483.085938 453.460938 C 485.40625 451.292969 486.644531 448.609375 486.644531 445.769531 C 486.644531 445.667969 486.644531 445.511719 486.644531 445.410156 C 486.644531 445.253906 486.644531 445.046875 486.59375 444.894531 C 486.59375 444.6875 486.542969 444.429688 486.542969 444.222656 C 486.542969 444.015625 486.492188 443.859375 486.4375 443.65625 C 486.078125 441.382812 485.199219 438.496094 482.621094 436.070312 C 482.105469 435.554688 481.484375 435.089844 480.8125 434.675781 C 479.472656 433.800781 477.925781 433.023438 476.117188 432.40625 C 473.074219 431.375 469.359375 430.703125 464.972656 430.496094 C 460.585938 430.289062 454.910156 430.289062 448.253906 430.601562 Z M 485.769531 443.859375 C 485.820312 444.273438 485.871094 444.636719 485.921875 445.046875 C 485.921875 445.203125 485.921875 445.359375 485.972656 445.5625 C 486.179688 451.550781 480.246094 456.140625 474.363281 456.710938 C 471.320312 457.019531 461.824219 457.484375 449.027344 457.742188 C 440.667969 457.898438 430.917969 457.949219 420.648438 457.792969 C 405.167969 457.535156 379.261719 459.652344 360.273438 461.40625 C 337.984375 463.519531 318.425781 465.84375 313.316406 466.460938 C 310.222656 466.875 306.917969 467.390625 303.359375 467.960938 C 298.042969 468.785156 292.574219 469.660156 287.929688 470.074219 C 282.71875 470.488281 279.261719 470.230469 277.351562 469.25 C 273.015625 466.980469 271.882812 456.347656 271.625 451.859375 C 271.625 451.5 271.570312 451.136719 271.570312 450.878906 C 271.726562 451.136719 271.933594 451.550781 272.191406 452.117188 C 272.292969 452.425781 272.449219 452.738281 272.550781 453.046875 C 272.914062 453.976562 273.273438 455.007812 273.636719 456.089844 C 274.875 459.652344 276.113281 463.367188 277.660156 464.140625 C 279.105469 464.863281 282.304688 464.449219 289.527344 462.644531 C 296.703125 460.839844 308.261719 457.535156 325.703125 452.480469 L 326.578125 452.21875 C 339.632812 448.453125 357.023438 444.582031 369.355469 441.953125 C 382.617188 439.164062 393.558594 437.101562 397.21875 436.480469 C 397.53125 436.429688 397.789062 436.378906 397.996094 436.378906 C 398.199219 436.378906 398.355469 436.328125 398.5625 436.328125 C 398.5625 436.328125 398.613281 436.328125 398.613281 436.328125 C 399.128906 436.277344 399.644531 436.171875 400.160156 436.121094 C 419.046875 433.644531 434.683594 432.097656 446.914062 431.476562 C 446.914062 431.476562 446.964844 431.476562 446.964844 431.476562 C 454.1875 431.117188 460.226562 431.0625 465.074219 431.324219 C 471.628906 431.683594 476.6875 432.972656 480.144531 435.140625 C 480.917969 435.605469 481.589844 436.121094 482.207031 436.6875 C 483.652344 438.03125 484.53125 439.527344 485.097656 440.972656 C 485.457031 441.953125 485.664062 442.933594 485.769531 443.859375 Z M 485.769531 443.859375 " fill-opacity="1" fill-rule="nonzero"/></g><g fill="#5d03a6" fill-opacity="1"><g transform="translate(213.988283, 511.785571)"><g><path d="M 5.28125 0 L 5.28125 -28.59375 L 19.875 -28.59375 L 19.875 -26.921875 L 7.203125 -26.921875 L 7.203125 -16.40625 L 18.796875 -16.40625 L 18.796875 -14.765625 L 7.203125 -14.765625 L 7.203125 0 Z M 5.28125 0 "/></g></g></g><g fill="#5d03a6" fill-opacity="1"><g transform="translate(238.106087, 511.785571)"><g><path d="M 5.28125 0 L 5.28125 -28.59375 L 7.203125 -28.59375 L 7.203125 -1.765625 L 20.359375 -1.765625 L 20.359375 0 Z M 5.28125 0 "/></g></g></g><g fill="#5d03a6" fill-opacity="1"><g transform="translate(261.343978, 511.785571)"><g><path d="M 24.546875 -2.78125 C 22.710938 -0.601562 19.914062 0.484375 16.15625 0.484375 C 12.394531 0.484375 9.585938 -0.609375 7.734375 -2.796875 C 5.878906 -4.984375 4.953125 -7.972656 4.953125 -11.765625 L 4.953125 -28.59375 L 6.875 -28.59375 L 6.875 -11.765625 C 6.875 -4.722656 9.960938 -1.203125 16.140625 -1.203125 C 22.316406 -1.203125 25.40625 -4.722656 25.40625 -11.765625 L 25.40625 -28.59375 L 27.3125 -28.59375 L 27.3125 -11.765625 C 27.3125 -7.953125 26.390625 -4.957031 24.546875 -2.78125 Z M 24.546875 -2.78125 "/></g></g></g><g fill="#5d03a6" fill-opacity="1"><g transform="translate(295.620771, 511.785571)"><g><path d="M 5.28125 0 L 5.28125 -28.59375 L 19.875 -28.59375 L 19.875 -26.921875 L 7.203125 -26.921875 L 7.203125 -16.40625 L 18.796875 -16.40625 L 18.796875 -14.765625 L 7.203125 -14.765625 L 7.203125 0 Z M 5.28125 0 "/></g></g></g><g fill="#5d03a6" fill-opacity="1"><g transform="translate(319.738575, 511.785571)"><g><path d="M 5.28125 0 L 5.28125 -28.59375 L 19.875 -28.59375 L 19.875 -26.921875 L 7.203125 -26.921875 L 7.203125 -16.40625 L 18.796875 -16.40625 L 18.796875 -14.765625 L 7.203125 -14.765625 L 7.203125 0 Z M 5.28125 0 "/></g></g></g><g fill="#5d03a6" fill-opacity="1"><g transform="translate(343.85638, 511.785571)"><g><path d="M 17.640625 -26.078125 C 15.691406 -26.898438 13.757812 -27.3125 11.84375 -27.3125 C 7.945312 -27.3125 6 -25.875 6 -23 C 6 -21.75 6.4375 -20.582031 7.3125 -19.5 C 8.195312 -18.414062 9.265625 -17.453125 10.515625 -16.609375 C 11.773438 -15.773438 13.03125 -14.914062 14.28125 -14.03125 C 15.53125 -13.15625 16.59375 -12.101562 17.46875 -10.875 C 18.351562 -9.65625 18.796875 -8.320312 18.796875 -6.875 C 18.796875 -4.445312 17.984375 -2.613281 16.359375 -1.375 C 14.734375 -0.132812 12.484375 0.484375 9.609375 0.484375 C 6.742188 0.484375 4.300781 -0.25 2.28125 -1.71875 L 3.234375 -3.15625 C 5.160156 -1.90625 7.269531 -1.28125 9.5625 -1.28125 C 11.851562 -1.28125 13.613281 -1.738281 14.84375 -2.65625 C 16.070312 -3.582031 16.6875 -4.910156 16.6875 -6.640625 C 16.6875 -7.835938 16.242188 -8.976562 15.359375 -10.0625 C 14.484375 -11.144531 13.414062 -12.117188 12.15625 -12.984375 C 10.90625 -13.847656 9.648438 -14.734375 8.390625 -15.640625 C 7.140625 -16.546875 6.070312 -17.625 5.1875 -18.875 C 4.3125 -20.132812 3.875 -21.484375 3.875 -22.921875 C 3.875 -24.816406 4.570312 -26.316406 5.96875 -27.421875 C 7.375 -28.523438 9.269531 -29.078125 11.65625 -29.078125 C 14.039062 -29.078125 16.257812 -28.597656 18.3125 -27.640625 Z M 17.640625 -26.078125 "/></g></g></g><g fill="#5d03a6" fill-opacity="1"><g transform="translate(367.734213, 511.785571)"><g/></g></g><g fill="#5d03a6" fill-opacity="1"><g transform="translate(384.132783, 511.785571)"><g><path d="M 22.359375 -11 L 23.921875 -11 C 23.867188 -8.519531 23.160156 -6.347656 21.796875 -4.484375 L 25.953125 0 L 23.5625 0 L 20.640625 -3.15625 C 19.359375 -2.039062 17.890625 -1.160156 16.234375 -0.515625 C 14.585938 0.117188 12.988281 0.4375 11.4375 0.4375 C 8.851562 0.4375 6.832031 -0.0976562 5.375 -1.171875 C 3.925781 -2.253906 3.203125 -3.769531 3.203125 -5.71875 C 3.203125 -7.664062 3.773438 -9.3125 4.921875 -10.65625 C 6.066406 -12.007812 7.679688 -13.390625 9.765625 -14.796875 C 6.585938 -18.210938 5 -20.835938 5 -22.671875 C 5 -24.515625 5.597656 -25.960938 6.796875 -27.015625 C 7.992188 -28.066406 9.738281 -28.59375 12.03125 -28.59375 C 14.332031 -28.59375 16.054688 -28.050781 17.203125 -26.96875 C 18.347656 -25.894531 18.921875 -24.601562 18.921875 -23.09375 C 18.921875 -21.59375 18.347656 -20.175781 17.203125 -18.84375 C 16.054688 -17.507812 14.46875 -16.054688 12.4375 -14.484375 L 20.71875 -5.640625 C 21.175781 -6.171875 21.5625 -6.984375 21.875 -8.078125 C 22.195312 -9.171875 22.359375 -10.144531 22.359375 -11 Z M 11.6875 -1.125 C 14.375 -1.125 16.972656 -2.203125 19.484375 -4.359375 L 10.953125 -13.484375 C 7.015625 -11.078125 5.046875 -8.675781 5.046875 -6.28125 C 5.046875 -4.65625 5.617188 -3.390625 6.765625 -2.484375 C 7.910156 -1.578125 9.550781 -1.125 11.6875 -1.125 Z M 17.125 -22.765625 C 17.125 -24.097656 16.6875 -25.132812 15.8125 -25.875 C 14.945312 -26.625 13.726562 -27 12.15625 -27 C 8.582031 -27 6.796875 -25.585938 6.796875 -22.765625 C 6.796875 -22.015625 7.03125 -21.207031 7.5 -20.34375 C 7.96875 -19.476562 8.46875 -18.742188 9 -18.140625 C 9.53125 -17.535156 10.273438 -16.753906 11.234375 -15.796875 C 15.160156 -18.390625 17.125 -20.710938 17.125 -22.765625 Z M 17.125 -22.765625 "/></g></g></g><g fill="#5d03a6" fill-opacity="1"><g transform="translate(412.490165, 511.785571)"><g/></g></g><g fill="#5d03a6" fill-opacity="1"><g transform="translate(428.888724, 511.785571)"><g><path d="M 5.28125 0 L 5.28125 -28.59375 L 19.875 -28.59375 L 19.875 -26.921875 L 7.203125 -26.921875 L 7.203125 -16.40625 L 18.796875 -16.40625 L 18.796875 -14.765625 L 7.203125 -14.765625 L 7.203125 0 Z M 5.28125 0 "/></g></g></g><g fill="#5d03a6" fill-opacity="1"><g transform="translate(453.006528, 511.785571)"><g><path d="M 5.28125 0 L 5.28125 -28.59375 L 7.203125 -28.59375 L 7.203125 0 Z M 5.28125 0 "/></g></g></g><g fill="#5d03a6" fill-opacity="1"><g transform="translate(467.485294, 511.785571)"><g><path d="M 5.28125 0 L 5.28125 -28.59375 L 7.203125 -28.59375 L 7.203125 -1.765625 L 20.359375 -1.765625 L 20.359375 0 Z M 5.28125 0 "/></g></g></g><g fill="#5d03a6" fill-opacity="1"><g transform="translate(490.723185, 511.785571)"><g><path d="M 5.28125 0 L 5.28125 -28.59375 L 18.5625 -28.59375 L 18.5625 -26.921875 L 7.203125 -26.921875 L 7.203125 -16.40625 L 17.484375 -16.40625 L 17.484375 -14.765625 L 7.203125 -14.765625 L 7.203125 -1.6875 L 19 -1.6875 L 19 0 Z M 5.28125 0 "/></g></g></g><g fill="#5d03a6" fill-opacity="1"><g transform="translate(514.121065, 511.785571)"><g><path d="M 17.640625 -26.078125 C 15.691406 -26.898438 13.757812 -27.3125 11.84375 -27.3125 C 7.945312 -27.3125 6 -25.875 6 -23 C 6 -21.75 6.4375 -20.582031 7.3125 -19.5 C 8.195312 -18.414062 9.265625 -17.453125 10.515625 -16.609375 C 11.773438 -15.773438 13.03125 -14.914062 14.28125 -14.03125 C 15.53125 -13.15625 16.59375 -12.101562 17.46875 -10.875 C 18.351562 -9.65625 18.796875 -8.320312 18.796875 -6.875 C 18.796875 -4.445312 17.984375 -2.613281 16.359375 -1.375 C 14.734375 -0.132812 12.484375 0.484375 9.609375 0.484375 C 6.742188 0.484375 4.300781 -0.25 2.28125 -1.71875 L 3.234375 -3.15625 C 5.160156 -1.90625 7.269531 -1.28125 9.5625 -1.28125 C 11.851562 -1.28125 13.613281 -1.738281 14.84375 -2.65625 C 16.070312 -3.582031 16.6875 -4.910156 16.6875 -6.640625 C 16.6875 -7.835938 16.242188 -8.976562 15.359375 -10.0625 C 14.484375 -11.144531 13.414062 -12.117188 12.15625 -12.984375 C 10.90625 -13.847656 9.648438 -14.734375 8.390625 -15.640625 C 7.140625 -16.546875 6.070312 -17.625 5.1875 -18.875 C 4.3125 -20.132812 3.875 -21.484375 3.875 -22.921875 C 3.875 -24.816406 4.570312 -26.316406 5.96875 -27.421875 C 7.375 -28.523438 9.269531 -29.078125 11.65625 -29.078125 C 14.039062 -29.078125 16.257812 -28.597656 18.3125 -27.640625 Z M 17.640625 -26.078125 "/></g></g></g><g fill="#5d03a6" fill-opacity="1"><g transform="translate(274.717962, 551.545193)"><g><path d="M 2.375 0 L 2.375 -12.875 L 3.234375 -12.875 L 3.234375 -0.796875 L 9.15625 -0.796875 L 9.15625 0 Z M 2.375 0 "/></g></g></g><g fill="#5d03a6" fill-opacity="1"><g transform="translate(287.875929, 551.545193)"><g><path d="M 3.0625 -4.46875 L 1.203125 0 L 0.28125 0 L 5.703125 -12.953125 L 6.203125 -12.953125 L 11.640625 0 L 10.671875 0 L 8.8125 -4.46875 Z M 5.90625 -11.515625 C 5.894531 -11.503906 5.867188 -11.429688 5.828125 -11.296875 C 5.660156 -10.785156 5.5 -10.347656 5.34375 -9.984375 L 3.359375 -5.203125 L 8.515625 -5.203125 L 6.53125 -9.96875 C 6.113281 -10.882812 5.90625 -11.398438 5.90625 -11.515625 Z M 5.90625 -11.515625 "/></g></g></g><g fill="#5d03a6" fill-opacity="1"><g transform="translate(303.409895, 551.545193)"><g><path d="M 7.9375 -11.734375 C 7.0625 -12.109375 6.191406 -12.296875 5.328125 -12.296875 C 3.578125 -12.296875 2.703125 -11.644531 2.703125 -10.34375 C 2.703125 -9.78125 2.898438 -9.253906 3.296875 -8.765625 C 3.691406 -8.285156 4.171875 -7.851562 4.734375 -7.46875 C 5.296875 -7.09375 5.859375 -6.707031 6.421875 -6.3125 C 6.984375 -5.914062 7.460938 -5.441406 7.859375 -4.890625 C 8.253906 -4.335938 8.453125 -3.738281 8.453125 -3.09375 C 8.453125 -2 8.085938 -1.171875 7.359375 -0.609375 C 6.628906 -0.0546875 5.617188 0.21875 4.328125 0.21875 C 3.035156 0.21875 1.9375 -0.113281 1.03125 -0.78125 L 1.453125 -1.421875 C 2.316406 -0.859375 3.265625 -0.578125 4.296875 -0.578125 C 5.328125 -0.578125 6.117188 -0.78125 6.671875 -1.1875 C 7.222656 -1.601562 7.5 -2.203125 7.5 -2.984375 C 7.5 -3.523438 7.300781 -4.035156 6.90625 -4.515625 C 6.507812 -5.003906 6.03125 -5.441406 5.46875 -5.828125 C 4.90625 -6.222656 4.34375 -6.625 3.78125 -7.03125 C 3.21875 -7.445312 2.738281 -7.9375 2.34375 -8.5 C 1.945312 -9.0625 1.75 -9.664062 1.75 -10.3125 C 1.75 -11.164062 2.0625 -11.835938 2.6875 -12.328125 C 3.320312 -12.828125 4.175781 -13.078125 5.25 -13.078125 C 6.320312 -13.078125 7.320312 -12.863281 8.25 -12.4375 Z M 7.9375 -11.734375 "/></g></g></g><g fill="#5d03a6" fill-opacity="1"><g transform="translate(316.855864, 551.545193)"><g><path d="M 12.078125 0 L 12.078125 -6.4375 L 3.234375 -6.4375 L 3.234375 0 L 2.375 0 L 2.375 -12.875 L 3.234375 -12.875 L 3.234375 -7.21875 L 12.078125 -7.21875 L 12.078125 -12.875 L 12.9375 -12.875 L 12.9375 0 Z M 12.078125 0 "/></g></g></g><g fill="#5d03a6" fill-opacity="1"><g transform="translate(335.773813, 551.545193)"><g><path d="M 2.375 0 L 2.375 -12.875 L 8.359375 -12.875 L 8.359375 -12.109375 L 3.234375 -12.109375 L 3.234375 -7.375 L 7.859375 -7.375 L 7.859375 -6.640625 L 3.234375 -6.640625 L 3.234375 -0.75 L 8.546875 -0.75 L 8.546875 0 Z M 2.375 0 "/></g></g></g><g fill="#5d03a6" fill-opacity="1"><g transform="translate(349.003789, 551.545193)"><g><path d="M 7.9375 -11.734375 C 7.0625 -12.109375 6.191406 -12.296875 5.328125 -12.296875 C 3.578125 -12.296875 2.703125 -11.644531 2.703125 -10.34375 C 2.703125 -9.78125 2.898438 -9.253906 3.296875 -8.765625 C 3.691406 -8.285156 4.171875 -7.851562 4.734375 -7.46875 C 5.296875 -7.09375 5.859375 -6.707031 6.421875 -6.3125 C 6.984375 -5.914062 7.460938 -5.441406 7.859375 -4.890625 C 8.253906 -4.335938 8.453125 -3.738281 8.453125 -3.09375 C 8.453125 -2 8.085938 -1.171875 7.359375 -0.609375 C 6.628906 -0.0546875 5.617188 0.21875 4.328125 0.21875 C 3.035156 0.21875 1.9375 -0.113281 1.03125 -0.78125 L 1.453125 -1.421875 C 2.316406 -0.859375 3.265625 -0.578125 4.296875 -0.578125 C 5.328125 -0.578125 6.117188 -0.78125 6.671875 -1.1875 C 7.222656 -1.601562 7.5 -2.203125 7.5 -2.984375 C 7.5 -3.523438 7.300781 -4.035156 6.90625 -4.515625 C 6.507812 -5.003906 6.03125 -5.441406 5.46875 -5.828125 C 4.90625 -6.222656 4.34375 -6.625 3.78125 -7.03125 C 3.21875 -7.445312 2.738281 -7.9375 2.34375 -8.5 C 1.945312 -9.0625 1.75 -9.664062 1.75 -10.3125 C 1.75 -11.164062 2.0625 -11.835938 2.6875 -12.328125 C 3.320312 -12.828125 4.175781 -13.078125 5.25 -13.078125 C 6.320312 -13.078125 7.320312 -12.863281 8.25 -12.4375 Z M 7.9375 -11.734375 "/></g></g></g><g fill="#5d03a6" fill-opacity="1"><g transform="translate(362.449761, 551.545193)"><g/></g></g><g fill="#5d03a6" fill-opacity="1"><g transform="translate(372.529739, 551.545193)"><g><path d="M 10.0625 -4.953125 L 10.765625 -4.953125 C 10.742188 -3.835938 10.425781 -2.859375 9.8125 -2.015625 L 11.6875 0 L 10.609375 0 L 9.28125 -1.421875 C 8.707031 -0.921875 8.046875 -0.523438 7.296875 -0.234375 C 6.554688 0.0546875 5.835938 0.203125 5.140625 0.203125 C 3.984375 0.203125 3.078125 -0.0390625 2.421875 -0.53125 C 1.765625 -1.019531 1.4375 -1.703125 1.4375 -2.578125 C 1.4375 -3.453125 1.691406 -4.191406 2.203125 -4.796875 C 2.722656 -5.398438 3.453125 -6.019531 4.390625 -6.65625 C 2.960938 -8.195312 2.25 -9.378906 2.25 -10.203125 C 2.25 -11.035156 2.519531 -11.6875 3.0625 -12.15625 C 3.601562 -12.632812 4.390625 -12.875 5.421875 -12.875 C 6.453125 -12.875 7.222656 -12.628906 7.734375 -12.140625 C 8.253906 -11.648438 8.515625 -11.066406 8.515625 -10.390625 C 8.515625 -9.710938 8.253906 -9.070312 7.734375 -8.46875 C 7.222656 -7.875 6.507812 -7.222656 5.59375 -6.515625 L 9.328125 -2.53125 C 9.523438 -2.769531 9.695312 -3.132812 9.84375 -3.625 C 9.988281 -4.125 10.0625 -4.566406 10.0625 -4.953125 Z M 5.25 -0.5 C 6.46875 -0.5 7.640625 -0.988281 8.765625 -1.96875 L 4.9375 -6.0625 C 3.15625 -4.988281 2.265625 -3.910156 2.265625 -2.828125 C 2.265625 -2.097656 2.519531 -1.523438 3.03125 -1.109375 C 3.550781 -0.703125 4.289062 -0.5 5.25 -0.5 Z M 7.703125 -10.234375 C 7.703125 -10.835938 7.503906 -11.304688 7.109375 -11.640625 C 6.722656 -11.984375 6.175781 -12.15625 5.46875 -12.15625 C 3.863281 -12.15625 3.0625 -11.515625 3.0625 -10.234375 C 3.0625 -9.898438 3.164062 -9.535156 3.375 -9.140625 C 3.582031 -8.753906 3.804688 -8.425781 4.046875 -8.15625 C 4.285156 -7.894531 4.625 -7.546875 5.0625 -7.109375 C 6.820312 -8.273438 7.703125 -9.316406 7.703125 -10.234375 Z M 7.703125 -10.234375 "/></g></g></g><g fill="#5d03a6" fill-opacity="1"><g transform="translate(387.991703, 551.545193)"><g/></g></g><g fill="#5d03a6" fill-opacity="1"><g transform="translate(398.071681, 551.545193)"><g><path d="M 3.203125 -10.8125 L 3.234375 -9.28125 L 3.234375 0 L 2.375 0 L 2.375 -12.984375 L 2.765625 -12.984375 L 11.25 -3.203125 C 11.820312 -2.515625 12.265625 -1.96875 12.578125 -1.5625 C 12.535156 -2.144531 12.515625 -2.804688 12.515625 -3.546875 L 12.515625 -12.875 L 13.375 -12.875 L 13.375 0.109375 L 12.984375 0.109375 L 4.34375 -9.84375 C 3.738281 -10.53125 3.351562 -10.988281 3.1875 -11.21875 Z M 3.203125 -10.8125 "/></g></g></g><g fill="#5d03a6" fill-opacity="1"><g transform="translate(417.421637, 551.545193)"><g><path d="M 3.0625 -4.46875 L 1.203125 0 L 0.28125 0 L 5.703125 -12.953125 L 6.203125 -12.953125 L 11.640625 0 L 10.671875 0 L 8.8125 -4.46875 Z M 5.90625 -11.515625 C 5.894531 -11.503906 5.867188 -11.429688 5.828125 -11.296875 C 5.660156 -10.785156 5.5 -10.347656 5.34375 -9.984375 L 3.359375 -5.203125 L 8.515625 -5.203125 L 6.53125 -9.96875 C 6.113281 -10.882812 5.90625 -11.398438 5.90625 -11.515625 Z M 5.90625 -11.515625 "/></g></g></g><g fill="#5d03a6" fill-opacity="1"><g transform="translate(432.955606, 551.545193)"><g><path d="M 2.375 0 L 2.375 -12.875 L 3.234375 -12.875 L 3.234375 0 Z M 2.375 0 "/></g></g></g><g fill="#5d03a6" fill-opacity="1"><g transform="translate(442.17159, 551.545193)"><g><path d="M 2.375 0 L 2.375 -12.875 L 3.234375 -12.875 L 3.234375 -0.796875 L 9.15625 -0.796875 L 9.15625 0 Z M 2.375 0 "/></g></g></g><g fill="#5d03a6" fill-opacity="1"><g transform="translate(455.32956, 551.545193)"><g><path d="M 7.9375 -11.734375 C 7.0625 -12.109375 6.191406 -12.296875 5.328125 -12.296875 C 3.578125 -12.296875 2.703125 -11.644531 2.703125 -10.34375 C 2.703125 -9.78125 2.898438 -9.253906 3.296875 -8.765625 C 3.691406 -8.285156 4.171875 -7.851562 4.734375 -7.46875 C 5.296875 -7.09375 5.859375 -6.707031 6.421875 -6.3125 C 6.984375 -5.914062 7.460938 -5.441406 7.859375 -4.890625 C 8.253906 -4.335938 8.453125 -3.738281 8.453125 -3.09375 C 8.453125 -2 8.085938 -1.171875 7.359375 -0.609375 C 6.628906 -0.0546875 5.617188 0.21875 4.328125 0.21875 C 3.035156 0.21875 1.9375 -0.113281 1.03125 -0.78125 L 1.453125 -1.421875 C 2.316406 -0.859375 3.265625 -0.578125 4.296875 -0.578125 C 5.328125 -0.578125 6.117188 -0.78125 6.671875 -1.1875 C 7.222656 -1.601562 7.5 -2.203125 7.5 -2.984375 C 7.5 -3.523438 7.300781 -4.035156 6.90625 -4.515625 C 6.507812 -5.003906 6.03125 -5.441406 5.46875 -5.828125 C 4.90625 -6.222656 4.34375 -6.625 3.78125 -7.03125 C 3.21875 -7.445312 2.738281 -7.9375 2.34375 -8.5 C 1.945312 -9.0625 1.75 -9.664062 1.75 -10.3125 C 1.75 -11.164062 2.0625 -11.835938 2.6875 -12.328125 C 3.320312 -12.828125 4.175781 -13.078125 5.25 -13.078125 C 6.320312 -13.078125 7.320312 -12.863281 8.25 -12.4375 Z M 7.9375 -11.734375 "/></g></g></g><g fill="#5d03a6" fill-opacity="1"><g transform="translate(468.780452, 551.545193)"><g/></g></g></svg>