<svg xmlns="http://www.w3.org/2000/svg" xmlns:xlink="http://www.w3.org/1999/xlink" width="500" zoomAndPan="magnify" viewBox="0 0 375 374.999991" height="500" preserveAspectRatio="xMidYMid meet" version="1.0"><defs><clipPath id="8bbf0e4498"><path d="M 37.558594 30.226562 L 337.457031 30.226562 L 337.457031 344.476562 L 37.558594 344.476562 Z M 37.558594 30.226562 " clip-rule="nonzero"/></clipPath></defs><g clip-path="url(#8bbf0e4498)"><path fill="#ffffff" d="M 41.386719 158.152344 L 45.394531 151.480469 C 45.394531 151.480469 48.683594 212.199219 61.554688 232.75 L 65.070312 221.460938 C 65.070312 221.460938 87.878906 283.679688 101.914062 299.785156 L 101.914062 290.324219 C 101.914062 290.324219 140.328125 334.761719 187.496094 344.765625 C 234.683594 334.761719 273.097656 290.324219 273.097656 290.324219 L 273.097656 299.785156 C 287.132812 283.679688 309.945312 221.460938 309.945312 221.460938 L 313.460938 232.75 C 326.308594 212.199219 329.621094 151.480469 329.621094 151.480469 L 333.628906 158.152344 C 343.566406 142.589844 330.496094 122.039062 334.792969 98.722656 C 339.070312 75.382812 325.546875 30.226562 325.546875 30.226562 C 325.546875 30.226562 313.460938 56.878906 315.40625 90.570312 C 317.355469 124.261719 277.574219 125.375 269.785156 154.621094 C 261.972656 183.890625 254.964844 219.238281 230.386719 221.460938 C 205.828125 223.683594 215.386719 213.679688 187.496094 213.679688 C 159.625 213.679688 169.183594 223.683594 144.605469 221.460938 C 120.046875 219.238281 113.019531 183.890625 105.230469 154.621094 C 97.4375 125.375 57.660156 124.261719 59.605469 90.570312 C 61.554688 56.878906 49.464844 30.226562 49.464844 30.226562 C 49.464844 30.226562 35.921875 75.382812 40.222656 98.722656 C 44.519531 122.039062 31.445312 142.589844 41.386719 158.152344 " fill-opacity="1" fill-rule="nonzero"/></g><path fill="#ffffff" d="M 121.792969 185.9375 L 118.882812 189.488281 C 118.882812 189.488281 143.441406 188.117188 153.089844 175.042969 L 153.089844 179.964844 C 153.089844 179.964844 174.242188 180.488281 187.496094 166.324219 C 200.769531 180.488281 221.925781 179.945312 221.925781 179.945312 L 221.925781 175.042969 C 231.574219 188.117188 256.128906 189.488281 256.128906 189.488281 L 253.195312 185.9375 C 278.648438 182.40625 292.101562 161.160156 292.101562 161.160156 C 263.449219 179.140625 247.644531 149.980469 227.183594 137.449219 C 206.703125 124.917969 187.496094 141 187.496094 141 C 187.496094 141 168.3125 124.917969 147.828125 137.46875 C 127.367188 149.980469 111.5625 179.140625 82.910156 161.160156 C 82.910156 161.160156 96.363281 182.40625 121.792969 185.9375 " fill-opacity="1" fill-rule="nonzero"/></svg>